<?xml version="1.0" encoding="UTF-8"?>
<!DOCTYPE svg PUBLIC "-//W3C//DTD SVG 1.1//EN" "http://www.w3.org/Graphics/SVG/1.1/DTD/svg11.dtd">
<svg xmlns="http://www.w3.org/2000/svg" version="1.1" width="500px" height="500px" style="shape-rendering:geometricPrecision; text-rendering:geometricPrecision; image-rendering:optimizeQuality; fill-rule:evenodd; clip-rule:evenodd" xmlns:xlink="http://www.w3.org/1999/xlink">
<g><path style="opacity:1" fill="#000000" d="M -0.5,-0.5 C 166.167,-0.5 332.833,-0.5 499.5,-0.5C 499.5,166.167 499.5,332.833 499.5,499.5C 332.833,499.5 166.167,499.5 -0.5,499.5C -0.5,332.833 -0.5,166.167 -0.5,-0.5 Z"/></g>
<g><path style="opacity:1" fill="#33dcf0" d="M 342.5,297.5 C 340.597,300.979 338.93,304.646 337.5,308.5C 335.684,310.118 334.351,312.118 333.5,314.5C 331.478,316.531 329.811,318.865 328.5,321.5C 327.167,322.167 326.167,323.167 325.5,324.5C 324.197,326.142 322.864,327.809 321.5,329.5C 320.167,330.167 319.167,331.167 318.5,332.5C 317.167,333.5 315.833,334.5 314.5,335.5C 312.167,337.5 309.833,339.5 307.5,341.5C 306.833,341.5 306.5,341.833 306.5,342.5C 306.167,342.5 305.833,342.5 305.5,342.5C 302.545,343.159 299.545,343.492 296.5,343.5C 299.5,340.833 302.5,338.167 305.5,335.5C 311.833,331.167 317.167,325.833 321.5,319.5C 330.491,309.863 336.657,298.529 340,285.5C 340.579,279.792 341.412,274.125 342.5,268.5C 344.957,270.225 347.623,270.725 350.5,270C 352.667,267.833 354.833,265.667 357,263.5C 357.667,260.833 357.667,258.167 357,255.5C 353.92,249.985 350.92,244.652 348,239.5C 359.667,227.167 371.333,214.833 383,202.5C 385.282,195.197 383.115,189.364 376.5,185C 373.264,182.365 369.597,181.365 365.5,182C 357.024,190.144 348.858,198.644 341,207.5C 341.495,184.523 347.161,162.856 358,142.5C 359.141,140.391 360.641,138.558 362.5,137C 339.263,122.263 320.596,103.096 306.5,79.5C 265.504,78.3334 224.504,78.1667 183.5,79C 169.595,102.905 150.929,122.238 127.5,137C 138.618,154.184 145.285,173.017 147.5,193.5C 147.485,195.634 146.985,197.634 146,199.5C 135.709,215.248 125.542,231.082 115.5,247C 125.839,250.751 136.506,252.918 147.5,253.5C 145.8,273.026 149.633,291.36 159,308.5C 159.949,310.093 161.115,311.426 162.5,312.5C 162.427,314.027 163.094,315.027 164.5,315.5C 165.622,317.556 167.289,318.889 169.5,319.5C 165.833,319.5 162.167,319.5 158.5,319.5C 158.771,317.62 158.104,316.287 156.5,315.5C 156.573,313.973 155.906,312.973 154.5,312.5C 154.672,311.508 154.338,310.842 153.5,310.5C 153.573,308.973 152.906,307.973 151.5,307.5C 151.672,306.508 151.338,305.842 150.5,305.5C 150.34,303.847 149.674,302.514 148.5,301.5C 147.537,296.951 146.204,292.617 144.5,288.5C 142.89,278.579 142.223,268.579 142.5,258.5C 130.224,257.098 118.224,254.431 106.5,250.5C 118.197,232.634 129.697,214.634 141,196.5C 139.725,173.671 132.725,153.004 120,134.5C 145.884,119.616 166.05,99.1164 180.5,73C 223.5,72.3333 266.5,72.3333 309.5,73C 324.259,99.2593 344.592,120.093 370.5,135.5C 357.752,151.661 350.585,169.994 349,190.5C 352.869,186.966 356.369,183.133 359.5,179C 363.72,175.297 368.386,174.63 373.5,177C 381.421,180.586 386.921,186.42 390,194.5C 390.79,197.634 390.457,200.634 389,203.5C 377.667,215.5 366.333,227.5 355,239.5C 357.594,244.688 360.261,250.021 363,255.5C 364.124,263.422 361.291,269.589 354.5,274C 351.937,275.079 349.271,275.579 346.5,275.5C 346.322,283.055 344.989,290.388 342.5,297.5 Z"/></g>
<g><path style="opacity:1" fill="#032433" d="M 321.5,319.5 C 320.065,318.904 318.398,318.904 316.5,319.5C 317.5,318.167 318.5,316.833 319.5,315.5C 330.82,303.042 336.32,288.376 336,271.5C 332.5,268 329,264.5 325.5,261C 324.552,260.517 323.552,260.351 322.5,260.5C 313.195,256.397 303.529,253.064 293.5,250.5C 293.477,252.927 292.977,255.26 292,257.5C 288.442,265.851 283.942,273.518 278.5,280.5C 274.668,284.164 270.668,287.664 266.5,291C 264.945,292.289 263.279,292.956 261.5,293C 275.461,280.42 285.128,265.086 290.5,247C 289.726,243.728 288.726,240.561 287.5,237.5C 287.313,235.436 286.813,233.436 286,231.5C 280.447,242.253 272.781,251.253 263,258.5C 263.778,255.451 265.278,252.618 267.5,250C 260.184,255.512 252.184,260.346 243.5,264.5C 243.167,264.333 242.833,264.167 242.5,264C 244.255,261.07 245.422,257.903 246,254.5C 247.771,253.696 249.271,252.529 250.5,251C 245.124,252.528 240.457,255.361 236.5,259.5C 225.631,267.675 213.964,274.675 201.5,280.5C 209.142,286.469 216.809,292.469 224.5,298.5C 225.386,299.325 225.719,300.325 225.5,301.5C 224.232,303.905 223.565,306.572 223.5,309.5C 227.784,310.261 231.784,311.595 235.5,313.5C 235.5,317.167 235.5,320.833 235.5,324.5C 234.167,324.5 232.833,324.5 231.5,324.5C 231.5,321.833 231.5,319.167 231.5,316.5C 227.43,315.644 223.43,314.477 219.5,313C 218.663,311.989 218.33,310.822 218.5,309.5C 214.215,308.705 209.881,308.372 205.5,308.5C 205.65,300.791 204.65,300.791 202.5,308.5C 200.967,304.568 199.634,300.568 198.5,296.5C 197.707,296.931 196.873,297.265 196,297.5C 192.6,296.044 189.1,295.044 185.5,294.5C 185.851,292.131 186.018,289.797 186,287.5C 185,288.833 184,290.167 183,291.5C 183.94,285.369 186.44,279.869 190.5,275C 189.833,274.333 189.167,273.667 188.5,273C 191.872,270.519 192.038,268.019 189,265.5C 183.906,270.754 179.406,276.42 175.5,282.5C 172.692,286.45 170.692,290.783 169.5,295.5C 177.253,296.646 184.753,298.646 192,301.5C 192.49,302.793 192.657,304.127 192.5,305.5C 192.631,306.239 192.464,306.906 192,307.5C 186.188,304.175 180.021,301.842 173.5,300.5C 171.5,300.167 169.5,299.833 167.5,299.5C 166.292,298.766 164.959,298.433 163.5,298.5C 163.5,297.5 163.5,296.5 163.5,295.5C 167.362,290.341 168.196,284.674 166,278.5C 165.5,271.174 165.334,263.841 165.5,256.5C 163.097,256.552 160.764,256.219 158.5,255.5C 156.5,255.167 154.5,254.833 152.5,254.5C 150.441,275.264 155.108,294.264 166.5,311.5C 165.432,312.434 164.099,312.768 162.5,312.5C 161.115,311.426 159.949,310.093 159,308.5C 149.633,291.36 145.8,273.026 147.5,253.5C 136.506,252.918 125.839,250.751 115.5,247C 125.542,231.082 135.709,215.248 146,199.5C 146.985,197.634 147.485,195.634 147.5,193.5C 145.285,173.017 138.618,154.184 127.5,137C 150.929,122.238 169.595,102.905 183.5,79C 224.504,78.1667 265.504,78.3334 306.5,79.5C 320.596,103.096 339.263,122.263 362.5,137C 360.641,138.558 359.141,140.391 358,142.5C 347.161,162.856 341.495,184.523 341,207.5C 348.858,198.644 357.024,190.144 365.5,182C 369.597,181.365 373.264,182.365 376.5,185C 383.115,189.364 385.282,195.197 383,202.5C 371.333,214.833 359.667,227.167 348,239.5C 350.92,244.652 353.92,249.985 357,255.5C 357.667,258.167 357.667,260.833 357,263.5C 354.833,265.667 352.667,267.833 350.5,270C 347.623,270.725 344.957,270.225 342.5,268.5C 341.412,274.125 340.579,279.792 340,285.5C 336.657,298.529 330.491,309.863 321.5,319.5 Z"/></g>
<g><path style="opacity:1" fill="#8295a4" d="M 329.5,219.5 C 328.622,191.9 334.289,165.567 346.5,140.5C 328.043,126.379 312.376,109.712 299.5,90.5C 262.833,89.1667 226.167,89.1667 189.5,90.5C 187.887,93.2861 186.054,95.9528 184,98.5C 183.405,99.8989 183.572,101.232 184.5,102.5C 179.33,102.949 178.33,105.616 181.5,110.5C 179.665,111.192 177.832,110.858 176,109.5C 166.405,120.203 155.905,129.87 144.5,138.5C 143.402,139.601 143.235,140.934 144,142.5C 150.282,155.179 154.449,168.513 156.5,182.5C 155.223,184.95 153.723,187.283 152,189.5C 149.243,171.396 143.41,154.396 134.5,138.5C 155.458,123.376 172.792,104.876 186.5,83C 225.504,82.1667 264.504,82.3334 303.5,83.5C 316.549,105.717 333.883,123.884 355.5,138C 346.033,153.898 340.033,171.064 337.5,189.5C 336.577,197.489 335.743,205.489 335,213.5C 332.96,215.37 331.127,217.37 329.5,219.5 Z"/></g>
<g><path style="opacity:1" fill="#37475e" d="M 189.5,90.5 C 226.167,89.1667 262.833,89.1667 299.5,90.5C 298.399,91.8484 297.399,93.3484 296.5,95C 262.167,95.6667 227.833,95.6667 193.5,95C 192.672,93.0077 191.339,91.5077 189.5,90.5 Z"/></g>
<g><path style="opacity:1" fill="#eaf0f6" d="M 195.5,100.5 C 228.168,100.333 260.835,100.5 293.5,101C 304.609,116.442 317.442,130.275 332,142.5C 330.899,148.306 329.066,153.973 326.5,159.5C 282.251,148.514 237.917,137.847 193.5,127.5C 191.912,128.01 190.745,129.01 190,130.5C 182.083,143.337 173.916,156.003 165.5,168.5C 163.349,159.863 160.349,151.53 156.5,143.5C 172.046,131.297 185.046,116.963 195.5,100.5 Z"/></g>
<g><path style="opacity:1" fill="#37485e" d="M 144.5,138.5 C 146.268,140.196 148.435,141.53 151,142.5C 155.698,152.595 159.198,163.095 161.5,174C 160.444,177.293 158.777,180.126 156.5,182.5C 154.449,168.513 150.282,155.179 144,142.5C 143.235,140.934 143.402,139.601 144.5,138.5 Z"/></g>
<g><path style="opacity:1" fill="#37475e" d="M 346.5,140.5 C 334.289,165.567 328.622,191.9 329.5,219.5C 328.828,220.267 327.995,220.934 327,221.5C 325.846,220.257 324.512,219.257 323,218.5C 321.675,198.575 325.508,179.741 334.5,162C 333.612,160.78 332.945,159.447 332.5,158C 334.083,152.007 336.583,146.507 340,141.5C 342.099,140.713 344.266,140.38 346.5,140.5 Z"/></g>
<g><path style="opacity:1" fill="#37485f" d="M 323.5,173.5 C 319.941,173.716 316.441,173.382 313,172.5C 311.989,173.056 311.156,173.722 310.5,174.5C 303.069,183.104 295.402,191.604 287.5,200C 276.352,209.985 264.019,218.152 250.5,224.5C 271.785,210.549 289.451,192.882 303.5,171.5C 302.635,170.417 301.635,170.251 300.5,171C 292.536,181.136 282.869,189.136 271.5,195C 272,195.167 272.5,195.333 273,195.5C 274.465,194.67 275.965,194.504 277.5,195C 254.16,217.782 226.16,228.115 193.5,226C 210.195,220.626 224.195,211.293 235.5,198C 231.974,198.731 228.474,199.897 225,201.5C 224.5,201.167 224,200.833 223.5,200.5C 234.27,189.539 233.27,188.706 220.5,198C 213.995,200.838 207.329,202.838 200.5,204C 204.698,200.181 207.531,195.681 209,190.5C 194.262,202.468 177.429,208.135 158.5,207.5C 164.749,199.341 170.249,190.674 175,181.5C 178.083,181.553 181.249,181.22 184.5,180.5C 181.027,178.86 178.36,176.36 176.5,173C 188.617,172.888 200.283,170.555 211.5,166C 207.861,166.278 204.194,166.278 200.5,166C 203.524,164.487 206.191,162.487 208.5,160C 197.517,163.732 186.184,164.899 174.5,163.5C 175.614,162.115 176.614,160.615 177.5,159C 195.929,159.582 211.929,153.748 225.5,141.5C 230.925,162.573 225.925,180.906 210.5,196.5C 210.833,196.833 211.167,197.167 211.5,197.5C 223.904,192.387 234.404,184.72 243,174.5C 240.665,182.329 236.832,189.496 231.5,196C 237.284,194.157 242.117,190.657 246,185.5C 237.431,204.393 223.265,217.559 203.5,225C 227.662,221.835 249.662,213.168 269.5,199C 265.796,199.51 262.13,200.176 258.5,201C 268.667,193.5 277.5,184.667 285,174.5C 283.871,179.411 282.204,184.078 280,188.5C 287.779,182.726 294.112,175.726 299,167.5C 307.455,168.823 315.622,170.823 323.5,173.5 Z"/></g>
<g><path style="opacity:1" fill="#8598a8" d="M 250.5,224.5 C 243.341,228.245 236.007,231.745 228.5,235C 257.912,229.372 282.079,214.872 301,191.5C 304.824,186.182 307.991,180.516 310.5,174.5C 311.156,173.722 311.989,173.056 313,172.5C 316.441,173.382 319.941,173.716 323.5,173.5C 296.917,218.982 257.251,244.649 204.5,250.5C 200.486,250.666 196.486,250.499 192.5,250C 191.083,247.017 190.25,243.85 190,240.5C 188.855,242.926 187.522,245.259 186,247.5C 184.828,236.993 183.162,226.66 181,216.5C 176.584,224.333 171.918,232 167,239.5C 166.667,236.167 166.333,232.833 166,229.5C 163.873,233.589 161.373,237.423 158.5,241C 147.6,243.156 136.6,244.322 125.5,244.5C 124.624,244.631 123.957,244.298 123.5,243.5C 124.035,241.739 125.035,240.406 126.5,239.5C 130.131,236.371 133.631,233.037 137,229.5C 137.333,231.167 137.667,232.833 138,234.5C 144.176,225.135 149.509,215.468 154,205.5C 152.667,206.833 151.333,208.167 150,209.5C 149.833,209.167 149.667,208.833 149.5,208.5C 154.114,200.27 158.447,191.937 162.5,183.5C 166.075,176.589 170.075,169.922 174.5,163.5C 186.184,164.899 197.517,163.732 208.5,160C 206.191,162.487 203.524,164.487 200.5,166C 204.194,166.278 207.861,166.278 211.5,166C 200.283,170.555 188.617,172.888 176.5,173C 178.36,176.36 181.027,178.86 184.5,180.5C 181.249,181.22 178.083,181.553 175,181.5C 170.249,190.674 164.749,199.341 158.5,207.5C 177.429,208.135 194.262,202.468 209,190.5C 207.531,195.681 204.698,200.181 200.5,204C 207.329,202.838 213.995,200.838 220.5,198C 233.27,188.706 234.27,189.539 223.5,200.5C 224,200.833 224.5,201.167 225,201.5C 228.474,199.897 231.974,198.731 235.5,198C 224.195,211.293 210.195,220.626 193.5,226C 226.16,228.115 254.16,217.782 277.5,195C 275.965,194.504 274.465,194.67 273,195.5C 272.5,195.333 272,195.167 271.5,195C 282.869,189.136 292.536,181.136 300.5,171C 301.635,170.251 302.635,170.417 303.5,171.5C 289.451,192.882 271.785,210.549 250.5,224.5 Z"/></g>
<g><path style="opacity:1" fill="#022231" d="M 220.5,165.5 C 221.525,165.897 221.692,166.563 221,167.5C 209.441,187.517 192.274,198.851 169.5,201.5C 172.707,195.585 176.04,189.752 179.5,184C 185.975,183.836 192.309,182.836 198.5,181C 192.837,180.918 187.504,179.584 182.5,177C 192.284,175.176 201.95,172.843 211.5,170C 214.823,168.96 217.823,167.46 220.5,165.5 Z"/></g>
<g><path style="opacity:1" fill="#072635" d="M 310.5,174.5 C 307.991,180.516 304.824,186.182 301,191.5C 282.079,214.872 257.912,229.372 228.5,235C 236.007,231.745 243.341,228.245 250.5,224.5C 264.019,218.152 276.352,209.985 287.5,200C 295.402,191.604 303.069,183.104 310.5,174.5 Z"/></g>
<g><path style="opacity:1" fill="#7e92a1" d="M 373.5,189.5 C 372.596,190.209 372.263,191.209 372.5,192.5C 369.805,191.116 368.805,189.116 369.5,186.5C 371.261,187.035 372.594,188.035 373.5,189.5 Z"/></g>
<g><path style="opacity:1" fill="#e2e8ef" d="M 319.5,188.5 C 320.097,188.735 320.43,189.235 320.5,190C 319.566,198.246 318.233,206.412 316.5,214.5C 312.694,212.503 308.694,211.67 304.5,212C 302.333,214.167 300.167,216.333 298,218.5C 297.333,220.5 297.333,222.5 298,224.5C 299.362,228.058 300.862,231.558 302.5,235C 300.385,238.118 297.885,240.952 295,243.5C 292.756,236.69 290.589,229.857 288.5,223C 300.812,213.192 311.146,201.692 319.5,188.5 Z"/></g>
<g><path style="opacity:1" fill="#899ba9" d="M 373.5,203.5 C 368.857,201.021 365.357,197.355 363,192.5C 362.506,194.134 362.34,195.801 362.5,197.5C 361.378,195.712 361.211,193.712 362,191.5C 362.718,190.549 363.551,190.383 364.5,191C 367.549,195.716 371.549,199.382 376.5,202C 375.756,203.039 374.756,203.539 373.5,203.5 Z"/></g>
<g><path style="opacity:1" fill="#dfe6ec" d="M 373.5,189.5 C 376.196,191.199 378.196,193.533 379.5,196.5C 376.668,196.573 374.334,195.239 372.5,192.5C 372.263,191.209 372.596,190.209 373.5,189.5 Z"/></g>
<g><path style="opacity:1" fill="#dee5eb" d="M 373.5,203.5 C 370.167,203.5 366.833,203.5 363.5,203.5C 363.167,201.5 362.833,199.5 362.5,197.5C 362.34,195.801 362.506,194.134 363,192.5C 365.357,197.355 368.857,201.021 373.5,203.5 Z"/></g>
<g><path style="opacity:1" fill="#3adef1" d="M 162.5,183.5 C 158.447,191.937 154.114,200.27 149.5,208.5C 149.667,208.833 149.833,209.167 150,209.5C 151.333,208.167 152.667,206.833 154,205.5C 149.509,215.468 144.176,225.135 138,234.5C 137.667,232.833 137.333,231.167 137,229.5C 133.631,233.037 130.131,236.371 126.5,239.5C 138.004,220.485 150.004,201.819 162.5,183.5 Z"/></g>
<g><path style="opacity:1" fill="#8396a5" d="M 358.5,202.5 C 357.883,202.389 357.383,202.056 357,201.5C 356.785,204.856 356.785,208.189 357,211.5C 355.478,209.259 354.145,206.926 353,204.5C 352.503,206.81 352.337,209.143 352.5,211.5C 351.067,209.086 350.567,206.419 351,203.5C 353,201.5 355,199.5 357,197.5C 358.009,199.025 358.509,200.692 358.5,202.5 Z"/></g>
<g><path style="opacity:1" fill="#dfe6ed" d="M 358.5,202.5 C 360.341,207.152 361.841,211.818 363,216.5C 361.333,218.167 359.667,219.833 358,221.5C 354.853,218.872 353.02,215.538 352.5,211.5C 352.337,209.143 352.503,206.81 353,204.5C 354.145,206.926 355.478,209.259 357,211.5C 356.785,208.189 356.785,204.856 357,201.5C 357.383,202.056 357.883,202.389 358.5,202.5 Z"/></g>
<g><path style="opacity:1" fill="#8d9eab" d="M 366.5,208.5 C 369.548,208.494 370.048,209.494 368,211.5C 366.961,210.756 366.461,209.756 366.5,208.5 Z"/></g>
<g><path style="opacity:1" fill="#e0e7ed" d="M 343.5,211.5 C 345.185,212.184 346.185,213.517 346.5,215.5C 346.043,216.298 345.376,216.631 344.5,216.5C 342.897,216.688 341.563,216.188 340.5,215C 341.636,213.855 342.636,212.688 343.5,211.5 Z"/></g>
<g><path style="opacity:1" fill="#7f92a0" d="M 344.5,216.5 C 345.376,216.631 346.043,216.298 346.5,215.5C 346.185,213.517 345.185,212.184 343.5,211.5C 344.122,210.373 344.955,209.373 346,208.5C 347.145,211.432 347.978,214.432 348.5,217.5C 346.901,217.768 345.568,217.434 344.5,216.5 Z"/></g>
<g><path style="opacity:1" fill="#8195a4" d="M 321.5,223.5 C 320.42,226.743 320.253,230.076 321,233.5C 323.448,237.615 326.281,241.448 329.5,245C 329.272,245.399 328.938,245.565 328.5,245.5C 318.483,237.769 311.15,228.102 306.5,216.5C 312.385,217.119 317.385,219.453 321.5,223.5 Z"/></g>
<g><path style="opacity:1" fill="#e3eaf0" d="M 334.5,221.5 C 335.822,221.33 336.989,221.663 338,222.5C 339.043,227.68 340.543,232.68 342.5,237.5C 340.877,241.319 339.377,241.319 338,237.5C 334.768,232.379 333.601,227.045 334.5,221.5 Z"/></g>
<g><path style="opacity:1" fill="#8498a7" d="M 352.5,223.5 C 350.393,224.468 348.059,224.802 345.5,224.5C 344.438,223.425 344.438,222.425 345.5,221.5C 347.982,222.067 350.316,222.734 352.5,223.5 Z"/></g>
<g><path style="opacity:1" fill="#394960" d="M 204.5,250.5 C 197.018,251.492 189.352,251.825 181.5,251.5C 180.661,242.756 179.494,234.09 178,225.5C 174.165,234.504 169.831,243.171 165,251.5C 151.554,249.996 138.388,247.663 125.5,244.5C 136.6,244.322 147.6,243.156 158.5,241C 161.373,237.423 163.873,233.589 166,229.5C 166.333,232.833 166.667,236.167 167,239.5C 171.918,232 176.584,224.333 181,216.5C 183.162,226.66 184.828,236.993 186,247.5C 187.522,245.259 188.855,242.926 190,240.5C 190.25,243.85 191.083,247.017 192.5,250C 196.486,250.499 200.486,250.666 204.5,250.5 Z"/></g>
<g><path style="opacity:1" fill="#37485e" d="M 321.5,223.5 C 322.478,223.811 323.145,224.478 323.5,225.5C 322.038,229.401 322.538,233.068 325,236.5C 328.5,241.333 332.667,245.5 337.5,249C 333.899,249.301 330.899,248.134 328.5,245.5C 328.938,245.565 329.272,245.399 329.5,245C 326.281,241.448 323.448,237.615 321,233.5C 320.253,230.076 320.42,226.743 321.5,223.5 Z"/></g>
<g><path style="opacity:1" fill="#dde4ea" d="M 352.5,223.5 C 353.289,223.783 353.956,224.283 354.5,225C 352.291,226.873 350.458,229.04 349,231.5C 347.295,229.423 346.128,227.09 345.5,224.5C 348.059,224.802 350.393,224.468 352.5,223.5 Z"/></g>
<g><path style="opacity:1" fill="#8295a4" d="M 342.5,237.5 C 340.543,232.68 339.043,227.68 338,222.5C 336.989,221.663 335.822,221.33 334.5,221.5C 335.585,219.418 337.085,219.084 339,220.5C 340.208,225.804 342.375,230.637 345.5,235C 344.627,236.045 343.627,236.878 342.5,237.5 Z"/></g>
<g><path style="opacity:1" fill="#8598a7" d="M 287.5,237.5 C 279.806,250.359 269.306,260.359 256,267.5C 256.079,265.154 256.912,262.987 258.5,261C 254.355,262.751 250.355,265.084 246.5,268C 242.901,269.309 239.401,270.809 236,272.5C 236.256,269.364 236.756,266.197 237.5,263C 237.486,261.615 237.152,260.449 236.5,259.5C 240.457,255.361 245.124,252.528 250.5,251C 249.271,252.529 247.771,253.696 246,254.5C 245.422,257.903 244.255,261.07 242.5,264C 242.833,264.167 243.167,264.333 243.5,264.5C 252.184,260.346 260.184,255.512 267.5,250C 265.278,252.618 263.778,255.451 263,258.5C 272.781,251.253 280.447,242.253 286,231.5C 286.813,233.436 287.313,235.436 287.5,237.5 Z"/></g>
<g><path style="opacity:1" fill="#8b9ca9" d="M 327.5,227.5 C 328.497,227.47 329.164,227.97 329.5,229C 332.154,237.225 331.154,237.392 326.5,229.5C 326.863,228.817 327.196,228.15 327.5,227.5 Z"/></g>
<g><path style="opacity:1" fill="#e6edf4" d="M 287.5,237.5 C 288.726,240.561 289.726,243.728 290.5,247C 285.128,265.086 275.461,280.42 261.5,293C 263.279,292.956 264.945,292.289 266.5,291C 270.668,287.664 274.668,284.164 278.5,280.5C 281.075,279.432 283.242,277.765 285,275.5C 284.667,277.833 284.333,280.167 284,282.5C 290.396,276.043 295.563,268.71 299.5,260.5C 307.129,259.981 314.796,259.981 322.5,260.5C 323.552,260.351 324.552,260.517 325.5,261C 329,264.5 332.5,268 336,271.5C 336.32,288.376 330.82,303.042 319.5,315.5C 319.167,315.5 318.833,315.5 318.5,315.5C 324.284,306.693 326.451,297.026 325,286.5C 324.71,284.956 324.044,283.623 323,282.5C 315.407,296.26 304.907,307.26 291.5,315.5C 293.547,317.015 295.881,317.849 298.5,318C 297.837,319.518 296.837,320.685 295.5,321.5C 293.409,321.318 291.409,321.652 289.5,322.5C 288.548,320.955 288.215,319.288 288.5,317.5C 289.574,310.343 292.074,303.676 296,297.5C 302.738,287.425 310.238,277.925 318.5,269C 317.833,268.333 317.167,268.333 316.5,269C 312.135,272.841 307.802,276.674 303.5,280.5C 295.937,285.224 289.437,291.224 284,298.5C 283.667,297.833 283.333,297.167 283,296.5C 281.296,298.373 279.463,300.04 277.5,301.5C 260.164,302.796 242.83,302.796 225.5,301.5C 225.719,300.325 225.386,299.325 224.5,298.5C 216.809,292.469 209.142,286.469 201.5,280.5C 213.964,274.675 225.631,267.675 236.5,259.5C 237.152,260.449 237.486,261.615 237.5,263C 236.756,266.197 236.256,269.364 236,272.5C 239.401,270.809 242.901,269.309 246.5,268C 250.355,265.084 254.355,262.751 258.5,261C 256.912,262.987 256.079,265.154 256,267.5C 269.306,260.359 279.806,250.359 287.5,237.5 Z"/></g>
<g><path style="opacity:1" fill="#728796" d="M 302.5,222.5 C 308.94,233.621 317.274,243.288 327.5,251.5C 327.167,251.833 326.833,252.167 326.5,252.5C 318.433,245.721 311.266,238.054 305,229.5C 303.589,227.35 302.755,225.016 302.5,222.5 Z"/></g>
<g><path style="opacity:1" fill="#34dbef" d="M 225.5,260.5 C 221.818,260.335 218.152,260.501 214.5,261C 217.351,262.881 217.018,263.715 213.5,263.5C 208.009,263.206 203.009,261.539 198.5,258.5C 198.5,257.5 198.5,256.5 198.5,255.5C 213.458,255.318 227.958,252.651 242,247.5C 238.028,252.518 232.528,256.851 225.5,260.5 Z"/></g>
<g><path style="opacity:1" fill="#889baa" d="M 322.5,260.5 C 314.796,259.981 307.129,259.981 299.5,260.5C 295.563,268.71 290.396,276.043 284,282.5C 284.333,280.167 284.667,277.833 285,275.5C 283.242,277.765 281.075,279.432 278.5,280.5C 283.942,273.518 288.442,265.851 292,257.5C 292.977,255.26 293.477,252.927 293.5,250.5C 303.529,253.064 313.195,256.397 322.5,260.5 Z"/></g>
<g><path style="opacity:1" fill="#dfe6ed" d="M 171.5,251.5 C 175.5,250.833 177.167,252.5 176.5,256.5C 181.116,255.443 184.449,256.943 186.5,261C 180.932,266.732 175.932,272.899 171.5,279.5C 169.07,270.059 169.07,260.726 171.5,251.5 Z"/></g>
<g><path style="opacity:1" fill="#8098a7" d="M 158.5,255.5 C 158.334,262.175 158.5,268.842 159,275.5C 160.506,282.187 162.006,288.854 163.5,295.5C 163.5,296.5 163.5,297.5 163.5,298.5C 164.959,298.433 166.292,298.766 167.5,299.5C 168.233,301.963 169.233,304.297 170.5,306.5C 169.954,308.135 169.62,309.801 169.5,311.5C 168.5,312.833 167.5,312.833 166.5,311.5C 155.108,294.264 150.441,275.264 152.5,254.5C 154.5,254.833 156.5,255.167 158.5,255.5 Z"/></g>
<g><path style="opacity:1" fill="#374a60" d="M 158.5,255.5 C 160.764,256.219 163.097,256.552 165.5,256.5C 165.334,263.841 165.5,271.174 166,278.5C 168.196,284.674 167.362,290.341 163.5,295.5C 162.006,288.854 160.506,282.187 159,275.5C 158.5,268.842 158.334,262.175 158.5,255.5 Z"/></g>
<g><path style="opacity:1" fill="#36475e" d="M 198.5,258.5 C 203.009,261.539 208.009,263.206 213.5,263.5C 217.018,263.715 217.351,262.881 214.5,261C 218.152,260.501 221.818,260.335 225.5,260.5C 218.511,266.67 210.511,271.336 201.5,274.5C 199.016,274.094 197.016,272.927 195.5,271C 196.739,266.877 197.739,262.71 198.5,258.5 Z"/></g>
<g><path style="opacity:1" fill="#082837" d="M 263.5,274.5 C 255.554,283.479 245.888,289.979 234.5,294C 233.251,294.74 232.251,294.573 231.5,293.5C 237.455,290.182 243.122,286.349 248.5,282C 240.277,283.339 231.944,284.172 223.5,284.5C 222.5,284.5 221.5,284.5 220.5,284.5C 220.389,283.883 220.056,283.383 219.5,283C 229.321,281.636 238.987,279.636 248.5,277C 252.613,275.812 256.28,273.979 259.5,271.5C 264.83,267.003 269.663,262.003 274,256.5C 271.654,263.051 268.154,269.051 263.5,274.5 Z"/></g>
<g><path style="opacity:1" fill="#8198a7" d="M 231.5,324.5 C 231.672,325.492 231.338,326.158 230.5,326.5C 230.741,324.114 230.075,322.114 228.5,320.5C 228.5,320.167 228.5,319.833 228.5,319.5C 230.203,320.66 230.869,319.993 230.5,317.5C 227.933,317.145 225.433,316.479 223,315.5C 222.235,315.57 221.735,315.903 221.5,316.5C 219.426,315.486 217.426,314.486 215.5,313.5C 216.404,312.791 216.737,311.791 216.5,310.5C 213.772,310.171 211.438,310.837 209.5,312.5C 204.739,311.493 200.073,310.493 195.5,309.5C 196.833,309.5 198.167,309.5 199.5,309.5C 199.495,305.967 198.495,302.8 196.5,300C 191.385,298.462 186.385,296.628 181.5,294.5C 181.167,293.333 180.833,292.167 180.5,291C 181.282,286.724 182.115,282.557 183,278.5C 180.294,280.871 177.961,283.537 176,286.5C 176.331,284.981 176.164,283.648 175.5,282.5C 179.406,276.42 183.906,270.754 189,265.5C 192.038,268.019 191.872,270.519 188.5,273C 189.167,273.667 189.833,274.333 190.5,275C 186.44,279.869 183.94,285.369 183,291.5C 184,290.167 185,288.833 186,287.5C 186.018,289.797 185.851,292.131 185.5,294.5C 189.1,295.044 192.6,296.044 196,297.5C 196.873,297.265 197.707,296.931 198.5,296.5C 199.634,300.568 200.967,304.568 202.5,308.5C 204.65,300.791 205.65,300.791 205.5,308.5C 209.881,308.372 214.215,308.705 218.5,309.5C 218.33,310.822 218.663,311.989 219.5,313C 223.43,314.477 227.43,315.644 231.5,316.5C 231.5,319.167 231.5,321.833 231.5,324.5 Z"/></g>
<g><path style="opacity:1" fill="#8599a7" d="M 259.5,271.5 C 256.28,273.979 252.613,275.812 248.5,277C 238.987,279.636 229.321,281.636 219.5,283C 220.056,283.383 220.389,283.883 220.5,284.5C 217.402,283.784 214.736,282.284 212.5,280C 228.59,279.44 244.257,276.607 259.5,271.5 Z"/></g>
<g><path style="opacity:1" fill="#8297a6" d="M 263.5,274.5 C 255.935,288.864 243.935,296.03 227.5,296C 228.984,295.338 230.317,294.504 231.5,293.5C 232.251,294.573 233.251,294.74 234.5,294C 245.888,289.979 255.554,283.479 263.5,274.5 Z"/></g>
<g><path style="opacity:1" fill="#7f94a3" d="M 231.5,293.5 C 233.666,291.163 235.666,288.663 237.5,286C 232.649,285.826 227.982,285.326 223.5,284.5C 231.944,284.172 240.277,283.339 248.5,282C 243.122,286.349 237.455,290.182 231.5,293.5 Z"/></g>
<g><path style="opacity:1" fill="#8097a6" d="M 303.5,280.5 C 293.633,289.867 285.466,300.533 279,312.5C 279.751,307.919 281.084,303.586 283,299.5C 279.589,303.399 276.422,307.399 273.5,311.5C 272.508,311.672 271.842,311.338 271.5,310.5C 272.745,307.013 274.745,304.013 277.5,301.5C 279.463,300.04 281.296,298.373 283,296.5C 283.333,297.167 283.667,297.833 284,298.5C 289.437,291.224 295.937,285.224 303.5,280.5 Z"/></g>
<g><path style="opacity:1" fill="#dae6ed" d="M 195.5,309.5 C 194.022,308.552 193.022,307.219 192.5,305.5C 192.657,304.127 192.49,302.793 192,301.5C 184.753,298.646 177.253,296.646 169.5,295.5C 170.692,290.783 172.692,286.45 175.5,282.5C 176.164,283.648 176.331,284.981 176,286.5C 177.961,283.537 180.294,280.871 183,278.5C 182.115,282.557 181.282,286.724 180.5,291C 180.833,292.167 181.167,293.333 181.5,294.5C 186.385,296.628 191.385,298.462 196.5,300C 198.495,302.8 199.495,305.967 199.5,309.5C 198.167,309.5 196.833,309.5 195.5,309.5 Z"/></g>
<g><path style="opacity:1" fill="#7f9baa" d="M 318.5,315.5 C 310.676,324.079 301.009,328.912 289.5,330C 291.745,327.269 293.745,324.436 295.5,321.5C 296.837,320.685 297.837,319.518 298.5,318C 295.881,317.849 293.547,317.015 291.5,315.5C 304.907,307.26 315.407,296.26 323,282.5C 324.044,283.623 324.71,284.956 325,286.5C 326.451,297.026 324.284,306.693 318.5,315.5 Z"/></g>
<g><path style="opacity:1" fill="#010809" d="M 144.5,288.5 C 146.204,292.617 147.537,296.951 148.5,301.5C 146.664,302.811 144.664,303.978 142.5,305C 115.644,309.727 94.4773,322.56 79,343.5C 68.1078,362.107 65.4411,381.773 71,402.5C 73.8662,409.433 76.5329,416.433 79,423.5C 80.8333,425.333 82.6667,427.167 84.5,429C 97.1055,435.535 110.439,439.868 124.5,442C 163.194,442.964 201.861,442.464 240.5,440.5C 240.5,443.167 240.5,445.833 240.5,448.5C 242.167,448.5 243.833,448.5 245.5,448.5C 245.5,443.5 245.5,438.5 245.5,433.5C 246.167,433.833 246.833,434.167 247.5,434.5C 248.833,434.5 250.167,434.5 251.5,434.5C 251.5,439.167 251.5,443.833 251.5,448.5C 252.833,448.5 254.167,448.5 255.5,448.5C 256.473,446.052 256.806,443.385 256.5,440.5C 277.106,442.717 297.773,444.05 318.5,444.5C 343.569,446.091 367.235,441.257 389.5,430C 414.99,411.555 424.824,386.722 419,355.5C 416.725,348.554 414.725,341.554 413,334.5C 410.872,331.37 408.372,328.537 405.5,326C 384.659,313.289 361.992,307.456 337.5,308.5C 338.93,304.646 340.597,300.979 342.5,297.5C 360.994,297.863 378.994,301.363 396.5,308C 417.878,318.062 430.044,334.896 433,358.5C 436.748,390.283 426.581,416.45 402.5,437C 381.758,449.855 359.092,456.188 334.5,456C 322.5,456.667 310.5,456.667 298.5,456C 281.374,454.309 264.208,453.476 247,453.5C 204.503,454.508 162.003,454.675 119.5,454C 78.1873,449.189 56.854,426.022 55.5,384.5C 56.0944,345.449 74.0944,317.949 109.5,302C 120.502,297.333 131.835,293.666 143.5,291C 144.252,290.329 144.586,289.496 144.5,288.5 Z"/></g>
<g><path style="opacity:1" fill="#063242" d="M 173.5,300.5 C 180.021,301.842 186.188,304.175 192,307.5C 192.464,306.906 192.631,306.239 192.5,305.5C 193.022,307.219 194.022,308.552 195.5,309.5C 200.073,310.493 204.739,311.493 209.5,312.5C 211.435,313.15 213.435,313.483 215.5,313.5C 217.426,314.486 219.426,315.486 221.5,316.5C 223.954,317.227 226.287,318.227 228.5,319.5C 228.5,319.833 228.5,320.167 228.5,320.5C 223.761,319.815 219.095,318.815 214.5,317.5C 213.432,316.566 212.099,316.232 210.5,316.5C 210.5,320.833 210.5,325.167 210.5,329.5C 207.148,328.992 204.148,327.658 201.5,325.5C 201.764,327.498 203.097,329.165 205.5,330.5C 203.861,332.942 201.861,333.109 199.5,331C 192.485,324.319 185.819,317.319 179.5,310C 177.222,309.014 174.889,308.18 172.5,307.5C 172.167,307 171.833,306.5 171.5,306C 172.32,304.2 172.986,302.366 173.5,300.5 Z"/></g>
<g><path style="opacity:1" fill="#e0eff7" d="M 225.5,301.5 C 242.83,302.796 260.164,302.796 277.5,301.5C 274.745,304.013 272.745,307.013 271.5,310.5C 267.873,315.873 265.706,321.873 265,328.5C 263.846,329.743 262.512,330.743 261,331.5C 260.517,332.448 260.351,333.448 260.5,334.5C 260.225,336.842 259.392,336.842 258,334.5C 257.667,334.833 257.333,335.167 257,335.5C 250.68,331.783 243.847,329.783 236.5,329.5C 236.821,323.974 236.488,318.64 235.5,313.5C 231.784,311.595 227.784,310.261 223.5,309.5C 223.565,306.572 224.232,303.905 225.5,301.5 Z"/></g>
<g><path style="opacity:1" fill="#020f10" d="M 148.5,301.5 C 149.674,302.514 150.34,303.847 150.5,305.5C 146.315,308.446 141.982,311.612 137.5,315C 126.234,318.758 114.9,322.091 103.5,325C 96.3864,328.447 90.8864,333.614 87,340.5C 76.2417,363.913 73.575,388.246 79,413.5C 81.1187,417.837 83.952,421.671 87.5,425C 99.8656,430.392 112.866,433.392 126.5,434C 149.001,434.121 171.501,434.288 194,434.5C 207.524,434.075 221.024,433.242 234.5,432C 236.548,430.759 238.548,430.592 240.5,431.5C 240.5,434.5 240.5,437.5 240.5,440.5C 201.861,442.464 163.194,442.964 124.5,442C 110.439,439.868 97.1055,435.535 84.5,429C 82.6667,427.167 80.8333,425.333 79,423.5C 76.5329,416.433 73.8662,409.433 71,402.5C 65.4411,381.773 68.1078,362.107 79,343.5C 94.4773,322.56 115.644,309.727 142.5,305C 144.664,303.978 146.664,302.811 148.5,301.5 Z"/></g>
<g><path style="opacity:1" fill="#031517" d="M 150.5,305.5 C 151.338,305.842 151.672,306.508 151.5,307.5C 147.389,312.442 142.723,316.942 137.5,321C 129.146,322.559 120.813,324.226 112.5,326C 103.975,328.538 97.1416,333.371 92,340.5C 88.22,346.726 85.5533,353.393 84,360.5C 81.4469,372.031 79.9469,383.698 79.5,395.5C 78.9753,405.083 81.642,413.583 87.5,421C 98.1754,427.734 109.675,430.234 122,428.5C 138.215,431.164 154.382,430.831 170.5,427.5C 192.664,431.963 214.664,431.463 236.5,426C 239.333,425.833 242.167,425.667 245,425.5C 280.63,431.338 316.463,432.838 352.5,430C 365.41,428.685 377.743,425.351 389.5,420C 397.456,413.688 402.623,405.521 405,395.5C 408.716,381.387 410.383,367.053 410,352.5C 409.352,338.983 402.519,330.817 389.5,328C 369.211,323.919 348.878,321.753 328.5,321.5C 329.811,318.865 331.478,316.531 333.5,314.5C 349.932,315.444 366.265,317.944 382.5,322C 389.153,324.658 395.819,327.325 402.5,330C 408.871,336.093 412.371,343.593 413,352.5C 413.967,368.762 412.301,384.762 408,400.5C 406.274,404.953 404.274,409.286 402,413.5C 395.527,419.559 388.361,424.726 380.5,429C 368.198,431.492 355.865,433.825 343.5,436C 335.686,436.804 327.853,437.304 320,437.5C 300.048,436.587 280.214,434.921 260.5,432.5C 260.672,431.508 260.338,430.842 259.5,430.5C 255.5,430.5 251.5,430.5 247.5,430.5C 247.5,431.833 247.5,433.167 247.5,434.5C 246.833,434.167 246.167,433.833 245.5,433.5C 245.5,432.5 245.5,431.5 245.5,430.5C 243.585,430.216 241.919,430.549 240.5,431.5C 238.548,430.592 236.548,430.759 234.5,432C 221.024,433.242 207.524,434.075 194,434.5C 171.501,434.288 149.001,434.121 126.5,434C 112.866,433.392 99.8656,430.392 87.5,425C 83.952,421.671 81.1187,417.837 79,413.5C 73.575,388.246 76.2417,363.913 87,340.5C 90.8864,333.614 96.3864,328.447 103.5,325C 114.9,322.091 126.234,318.758 137.5,315C 141.982,311.612 146.315,308.446 150.5,305.5 Z"/></g>
<g><path style="opacity:1" fill="#041b1e" d="M 151.5,307.5 C 152.906,307.973 153.573,308.973 153.5,310.5C 153.649,311.552 153.483,312.552 153,313.5C 149.383,317.239 145.883,321.072 142.5,325C 131.317,326.774 120.15,328.607 109,330.5C 103.457,334.032 98.4568,338.365 94,343.5C 92.0496,347.732 90.383,352.066 89,356.5C 86.5065,372.755 85.1732,389.088 85,405.5C 85.8343,409.679 87.1676,413.679 89,417.5C 91.7361,419.752 94.5695,421.752 97.5,423.5C 99.4758,425.011 101.809,425.844 104.5,426C 116.867,426.343 129.201,427.176 141.5,428.5C 149.76,427.727 157.926,426.393 166,424.5C 185.131,428.764 204.298,429.598 223.5,427C 231.034,425.317 238.534,423.483 246,421.5C 265.855,426.313 286.022,428.979 306.5,429.5C 320.828,428.869 335.162,428.369 349.5,428C 360.308,426.772 370.974,424.772 381.5,422C 394.309,415.844 401.809,405.677 404,391.5C 407.394,378.019 408.727,364.353 408,350.5C 405.527,338.694 398.36,331.527 386.5,329C 375.788,327.826 365.121,326.326 354.5,324.5C 344.829,325.292 335.162,325.292 325.5,324.5C 326.167,323.167 327.167,322.167 328.5,321.5C 348.878,321.753 369.211,323.919 389.5,328C 402.519,330.817 409.352,338.983 410,352.5C 410.383,367.053 408.716,381.387 405,395.5C 402.623,405.521 397.456,413.688 389.5,420C 377.743,425.351 365.41,428.685 352.5,430C 316.463,432.838 280.63,431.338 245,425.5C 242.167,425.667 239.333,425.833 236.5,426C 214.664,431.463 192.664,431.963 170.5,427.5C 154.382,430.831 138.215,431.164 122,428.5C 109.675,430.234 98.1754,427.734 87.5,421C 81.642,413.583 78.9753,405.083 79.5,395.5C 79.9469,383.698 81.4469,372.031 84,360.5C 85.5533,353.393 88.22,346.726 92,340.5C 97.1416,333.371 103.975,328.538 112.5,326C 120.813,324.226 129.146,322.559 137.5,321C 142.723,316.942 147.389,312.442 151.5,307.5 Z"/></g>
<g><path style="opacity:1" fill="#020f10" d="M 337.5,308.5 C 361.992,307.456 384.659,313.289 405.5,326C 408.372,328.537 410.872,331.37 413,334.5C 414.725,341.554 416.725,348.554 419,355.5C 424.824,386.722 414.99,411.555 389.5,430C 367.235,441.257 343.569,446.091 318.5,444.5C 297.773,444.05 277.106,442.717 256.5,440.5C 256.5,438.5 256.5,436.5 256.5,434.5C 258.483,434.843 259.817,434.176 260.5,432.5C 280.214,434.921 300.048,436.587 320,437.5C 327.853,437.304 335.686,436.804 343.5,436C 355.865,433.825 368.198,431.492 380.5,429C 388.361,424.726 395.527,419.559 402,413.5C 404.274,409.286 406.274,404.953 408,400.5C 412.301,384.762 413.967,368.762 413,352.5C 412.371,343.593 408.871,336.093 402.5,330C 395.819,327.325 389.153,324.658 382.5,322C 366.265,317.944 349.932,315.444 333.5,314.5C 334.351,312.118 335.684,310.118 337.5,308.5 Z"/></g>
<g><path style="opacity:1" fill="#d1e2ea" d="M 215.5,313.5 C 213.435,313.483 211.435,313.15 209.5,312.5C 211.438,310.837 213.772,310.171 216.5,310.5C 216.737,311.791 216.404,312.791 215.5,313.5 Z"/></g>
<g><path style="opacity:1" fill="#083f4f" d="M 167.5,299.5 C 169.5,299.833 171.5,300.167 173.5,300.5C 172.986,302.366 172.32,304.2 171.5,306C 171.833,306.5 172.167,307 172.5,307.5C 174.889,308.18 177.222,309.014 179.5,310C 185.819,317.319 192.485,324.319 199.5,331C 201.861,333.109 203.861,332.942 205.5,330.5C 209.19,334.003 213.523,336.503 218.5,338C 214.11,338.772 209.777,338.606 205.5,337.5C 204.6,338.357 204.934,339.024 206.5,339.5C 206.428,341.311 205.595,342.644 204,343.5C 202.667,342.167 201.333,342.167 200,343.5C 196.992,342.746 194.159,341.579 191.5,340C 189.358,331.05 185.358,323.05 179.5,316C 175.958,314.725 172.625,313.225 169.5,311.5C 169.62,309.801 169.954,308.135 170.5,306.5C 169.233,304.297 168.233,301.963 167.5,299.5 Z"/></g>
<g><path style="opacity:1" fill="#063040" d="M 288.5,317.5 C 287.275,322.29 286.608,327.29 286.5,332.5C 279.402,334.219 272.402,336.219 265.5,338.5C 265.389,337.883 265.056,337.383 264.5,337C 268.949,333.289 270.782,328.456 270,322.5C 271.274,318.846 272.44,315.18 273.5,311.5C 276.422,307.399 279.589,303.399 283,299.5C 281.084,303.586 279.751,307.919 279,312.5C 285.466,300.533 293.633,289.867 303.5,280.5C 307.802,276.674 312.135,272.841 316.5,269C 317.167,268.333 317.833,268.333 318.5,269C 310.238,277.925 302.738,287.425 296,297.5C 292.074,303.676 289.574,310.343 288.5,317.5 Z"/></g>
<g><path style="opacity:1" fill="#0e6f80" d="M 164.5,315.5 C 176.734,314.733 182.068,320.4 180.5,332.5C 179.883,332.389 179.383,332.056 179,331.5C 178.814,328.964 178.314,326.631 177.5,324.5C 175.807,321.318 173.141,319.652 169.5,319.5C 167.289,318.889 165.622,317.556 164.5,315.5 Z"/></g>
<g><path style="opacity:1" fill="#05303f" d="M 322.5,287.5 C 323.413,306.783 314.746,320.283 296.5,328C 295.167,328.667 293.833,328.667 292.5,328C 297.201,323.634 301.534,318.967 305.5,314C 301.892,314.866 298.226,315.533 294.5,316C 306.045,308.622 315.378,299.122 322.5,287.5 Z"/></g>
<g><path style="opacity:1" fill="#0a5162" d="M 166.5,311.5 C 167.5,312.833 168.5,312.833 169.5,311.5C 172.625,313.225 175.958,314.725 179.5,316C 185.358,323.05 189.358,331.05 191.5,340C 194.159,341.579 196.992,342.746 200,343.5C 201.333,342.167 202.667,342.167 204,343.5C 205.595,342.644 206.428,341.311 206.5,339.5C 207.167,339.833 207.833,340.167 208.5,340.5C 210.297,341.73 212.297,342.396 214.5,342.5C 214.665,345.85 214.498,349.183 214,352.5C 213.184,353.823 212.017,354.489 210.5,354.5C 199.634,348.294 189.634,340.96 180.5,332.5C 182.068,320.4 176.734,314.733 164.5,315.5C 163.094,315.027 162.427,314.027 162.5,312.5C 164.099,312.768 165.432,312.434 166.5,311.5 Z"/></g>
<g><path style="opacity:1" fill="#d4e5ed" d="M 221.5,316.5 C 221.735,315.903 222.235,315.57 223,315.5C 225.433,316.479 227.933,317.145 230.5,317.5C 230.869,319.993 230.203,320.66 228.5,319.5C 226.287,318.227 223.954,317.227 221.5,316.5 Z"/></g>
<g><path style="opacity:1" fill="#f8fcfc" d="M 157.5,319.5 C 157.833,319.5 158.167,319.5 158.5,319.5C 162.167,319.5 165.833,319.5 169.5,319.5C 173.141,319.652 175.807,321.318 177.5,324.5C 178.056,328.666 177.056,332.332 174.5,335.5C 171.676,335.989 170.343,337.656 170.5,340.5C 167.833,340.5 165.167,340.5 162.5,340.5C 162.326,338.139 161.993,335.806 161.5,333.5C 161.833,333.5 162.167,333.5 162.5,333.5C 166.533,333.309 168.033,331.309 167,327.5C 163.943,326.549 160.777,326.216 157.5,326.5C 157.5,324.167 157.5,321.833 157.5,319.5 Z"/></g>
<g><path style="opacity:1" fill="#d1edf5" d="M 214.5,317.5 C 219.095,318.815 223.761,319.815 228.5,320.5C 230.075,322.114 230.741,324.114 230.5,326.5C 230.5,328.5 230.5,330.5 230.5,332.5C 226.039,333.032 221.706,334.032 217.5,335.5C 216.206,334.71 215.039,333.71 214,332.5C 213.184,327.316 213.35,322.316 214.5,317.5 Z"/></g>
<g><path style="opacity:1" fill="#0a4555" d="M 321.5,319.5 C 317.167,325.833 311.833,331.167 305.5,335.5C 304.312,334.316 303.145,334.316 302,335.5C 301.536,334.906 301.369,334.239 301.5,333.5C 306.474,328.861 311.474,324.195 316.5,319.5C 318.398,318.904 320.065,318.904 321.5,319.5 Z"/></g>
<g><path style="opacity:1" fill="#0b4147" d="M 155.5,318.5 C 157.526,337.306 149.526,343.806 131.5,338C 122.431,336.747 113.765,338.081 105.5,342C 103.859,343.129 102.859,344.629 102.5,346.5C 101.539,349.426 100.873,352.426 100.5,355.5C 99.3389,358.102 98.1723,360.769 97,363.5C 95.6063,370.864 94.1063,378.198 92.5,385.5C 91.502,394.141 91.1686,402.808 91.5,411.5C 89.691,406.96 88.691,402.126 88.5,397C 90.1236,384.178 91.6236,371.345 93,358.5C 94.9163,350.829 98.7497,344.329 104.5,339C 109.761,337.135 115.095,335.469 120.5,334C 126.487,333.152 132.32,333.652 138,335.5C 143.307,336.047 147.64,334.047 151,329.5C 152,326.167 153,322.833 154,319.5C 154.383,318.944 154.883,318.611 155.5,318.5 Z"/></g>
<g><path style="opacity:1" fill="#45a5b1" d="M 157.5,319.5 C 157.5,321.833 157.5,324.167 157.5,326.5C 160.777,326.216 163.943,326.549 167,327.5C 168.033,331.309 166.533,333.309 162.5,333.5C 163.72,331.718 164.386,329.718 164.5,327.5C 162.167,327.5 159.833,327.5 157.5,327.5C 156.167,324.833 156.167,322.167 157.5,319.5 Z"/></g>
<g><path style="opacity:1" fill="#6c96a6" d="M 214.5,317.5 C 213.35,322.316 213.184,327.316 214,332.5C 215.039,333.71 216.206,334.71 217.5,335.5C 218.167,336.167 218.833,336.833 219.5,337.5C 216.109,339.125 212.442,340.125 208.5,340.5C 207.833,340.167 207.167,339.833 206.5,339.5C 204.934,339.024 204.6,338.357 205.5,337.5C 209.777,338.606 214.11,338.772 218.5,338C 213.523,336.503 209.19,334.003 205.5,330.5C 203.097,329.165 201.764,327.498 201.5,325.5C 204.148,327.658 207.148,328.992 210.5,329.5C 210.5,325.167 210.5,320.833 210.5,316.5C 212.099,316.232 213.432,316.566 214.5,317.5 Z"/></g>
<g><path style="opacity:1" fill="#0d5061" d="M 231.5,324.5 C 232.833,324.5 234.167,324.5 235.5,324.5C 235.5,328.833 235.5,333.167 235.5,337.5C 235.5,338.833 235.5,340.167 235.5,341.5C 235.167,341.5 234.833,341.5 234.5,341.5C 233.167,341.5 231.833,341.5 230.5,341.5C 230.5,338.5 230.5,335.5 230.5,332.5C 230.5,330.5 230.5,328.5 230.5,326.5C 231.338,326.158 231.672,325.492 231.5,324.5 Z"/></g>
<g><path style="opacity:1" fill="#bbe9f2" d="M 318.5,315.5 C 318.833,315.5 319.167,315.5 319.5,315.5C 318.5,316.833 317.5,318.167 316.5,319.5C 311.474,324.195 306.474,328.861 301.5,333.5C 296.714,336.445 292.048,339.612 287.5,343C 286.262,343.69 286.262,344.19 287.5,344.5C 285.393,345.468 283.059,345.802 280.5,345.5C 281.278,344.844 281.944,344.011 282.5,343C 281.767,341.234 281.433,339.401 281.5,337.5C 283.36,336.061 285.027,334.395 286.5,332.5C 286.608,327.29 287.275,322.29 288.5,317.5C 288.215,319.288 288.548,320.955 289.5,322.5C 291.409,321.652 293.409,321.318 295.5,321.5C 293.745,324.436 291.745,327.269 289.5,330C 301.009,328.912 310.676,324.079 318.5,315.5 Z"/></g>
<g><path style="opacity:1" fill="#abedf8" d="M 230.5,332.5 C 230.5,335.5 230.5,338.5 230.5,341.5C 231.833,341.5 233.167,341.5 234.5,341.5C 227.893,343.08 222.226,346.414 217.5,351.5C 217.5,348.5 217.5,345.5 217.5,342.5C 223.897,341.89 224.563,340.224 219.5,337.5C 218.833,336.833 218.167,336.167 217.5,335.5C 221.706,334.032 226.039,333.032 230.5,332.5 Z"/></g>
<g><path style="opacity:1" fill="#09373c" d="M 318.5,332.5 C 340.614,331.717 362.614,332.883 384.5,336C 387.104,336.39 389.438,337.224 391.5,338.5C 378.803,337.793 366.136,336.793 353.5,335.5C 340.27,336.696 327.27,336.696 314.5,335.5C 315.833,334.5 317.167,333.5 318.5,332.5 Z"/></g>
<g><path style="opacity:1" fill="#beedf7" d="M 235.5,313.5 C 236.488,318.64 236.821,323.974 236.5,329.5C 243.847,329.783 250.68,331.783 257,335.5C 257.333,335.167 257.667,334.833 258,334.5C 259.392,336.842 260.225,336.842 260.5,334.5C 261.621,336.316 262.121,338.316 262,340.5C 260.211,337.821 259.045,337.987 258.5,341C 259.159,343.462 259.493,345.962 259.5,348.5C 259.631,349.376 259.298,350.043 258.5,350.5C 253.071,342.284 245.404,337.95 235.5,337.5C 235.5,333.167 235.5,328.833 235.5,324.5C 235.5,320.833 235.5,317.167 235.5,313.5 Z"/></g>
<g><path style="opacity:1" fill="#77a6b6" d="M 271.5,310.5 C 271.842,311.338 272.508,311.672 273.5,311.5C 272.44,315.18 271.274,318.846 270,322.5C 270.782,328.456 268.949,333.289 264.5,337C 265.056,337.383 265.389,337.883 265.5,338.5C 265.877,340.258 266.544,341.925 267.5,343.5C 266.336,343.165 265.003,343.165 263.5,343.5C 265.242,347.725 266.576,352.059 267.5,356.5C 266.167,356.833 264.833,357.167 263.5,357.5C 262.538,354.261 261.205,351.261 259.5,348.5C 259.493,345.962 259.159,343.462 258.5,341C 259.045,337.987 260.211,337.821 262,340.5C 262.121,338.316 261.621,336.316 260.5,334.5C 260.351,333.448 260.517,332.448 261,331.5C 262.512,330.743 263.846,329.743 265,328.5C 265.706,321.873 267.873,315.873 271.5,310.5 Z"/></g>
<g><path style="opacity:1" fill="#34e1f5" d="M 177.5,324.5 C 178.314,326.631 178.814,328.964 179,331.5C 179.383,332.056 179.883,332.389 180.5,332.5C 189.634,340.96 199.634,348.294 210.5,354.5C 211.29,355.401 212.29,356.068 213.5,356.5C 212.416,359.004 211.083,361.337 209.5,363.5C 209.771,361.62 209.104,360.287 207.5,359.5C 206.5,358.833 205.5,358.167 204.5,357.5C 197.167,352.5 189.833,347.5 182.5,342.5C 180.909,340.367 178.909,338.701 176.5,337.5C 176.167,336.5 175.5,335.833 174.5,335.5C 177.056,332.332 178.056,328.666 177.5,324.5 Z"/></g>
<g><path style="opacity:1" fill="#147284" d="M 301.5,333.5 C 301.369,334.239 301.536,334.906 302,335.5C 303.145,334.316 304.312,334.316 305.5,335.5C 302.5,338.167 299.5,340.833 296.5,343.5C 293.57,344.299 290.57,344.632 287.5,344.5C 286.262,344.19 286.262,343.69 287.5,343C 292.048,339.612 296.714,336.445 301.5,333.5 Z"/></g>
<g><path style="opacity:1" fill="#0c5161" d="M 286.5,332.5 C 285.027,334.395 283.36,336.061 281.5,337.5C 280.71,338.609 280.21,339.942 280,341.5C 276.61,343.632 274.277,346.632 273,350.5C 270.932,352.396 269.099,354.396 267.5,356.5C 266.576,352.059 265.242,347.725 263.5,343.5C 265.003,343.165 266.336,343.165 267.5,343.5C 266.544,341.925 265.877,340.258 265.5,338.5C 272.402,336.219 279.402,334.219 286.5,332.5 Z"/></g>
<g><path style="opacity:1" fill="#083035" d="M 154.5,312.5 C 155.906,312.973 156.573,313.973 156.5,315.5C 156.443,316.609 156.11,317.609 155.5,318.5C 154.883,318.611 154.383,318.944 154,319.5C 153,322.833 152,326.167 151,329.5C 147.64,334.047 143.307,336.047 138,335.5C 132.32,333.652 126.487,333.152 120.5,334C 115.095,335.469 109.761,337.135 104.5,339C 98.7497,344.329 94.9163,350.829 93,358.5C 91.6236,371.345 90.1236,384.178 88.5,397C 88.691,402.126 89.691,406.96 91.5,411.5C 91.5,412.167 91.5,412.833 91.5,413.5C 89.0158,411.88 87.5158,409.547 87,406.5C 86.1954,389.6 87.8621,372.934 92,356.5C 94.2379,349.018 98.2379,342.684 104,337.5C 104.483,336.552 104.649,335.552 104.5,334.5C 108.425,333.469 112.258,332.136 116,330.5C 124.149,329.779 132.316,329.279 140.5,329C 142.333,327.833 144.167,326.667 146,325.5C 148.021,322.141 150.521,319.141 153.5,316.5C 154.429,315.311 154.762,313.978 154.5,312.5 Z"/></g>
<g><path style="opacity:1" fill="#0e565e" d="M 156.5,315.5 C 158.104,316.287 158.771,317.62 158.5,319.5C 158.167,319.5 157.833,319.5 157.5,319.5C 156.167,322.167 156.167,324.833 157.5,327.5C 160.669,336.28 158.002,342.78 149.5,347C 147.833,347.667 146.167,347.667 144.5,347C 133.656,340.314 121.99,338.648 109.5,342C 107.119,342.223 105.453,343.39 104.5,345.5C 103.833,345.833 103.167,346.167 102.5,346.5C 102.859,344.629 103.859,343.129 105.5,342C 113.765,338.081 122.431,336.747 131.5,338C 149.526,343.806 157.526,337.306 155.5,318.5C 156.11,317.609 156.443,316.609 156.5,315.5 Z"/></g>
<g><path style="opacity:1" fill="#fbfdfe" d="M 234.5,341.5 C 234.833,341.5 235.167,341.5 235.5,341.5C 242.829,341.911 247.663,345.578 250,352.5C 250.499,356.486 250.666,360.486 250.5,364.5C 249.522,369.807 248.522,375.141 247.5,380.5C 243.274,394.893 234.274,405.06 220.5,411C 213.015,413.212 207.348,411.046 203.5,404.5C 202.642,396.868 202.309,389.201 202.5,381.5C 204.519,375.464 206.853,369.464 209.5,363.5C 211.083,361.337 212.416,359.004 213.5,356.5C 215.543,355.421 216.876,353.754 217.5,351.5C 222.226,346.414 227.893,343.08 234.5,341.5 Z"/></g>
<g><path style="opacity:1" fill="#fafdfd" d="M 141.5,351.5 C 141.993,361.514 137.993,369.181 129.5,374.5C 137.499,383.827 137.499,393.161 129.5,402.5C 118.939,409.391 107.272,412.391 94.5,411.5C 95.4992,406.172 96.4992,400.839 97.5,395.5C 101.23,379.09 104.23,362.423 106.5,345.5C 114.835,342.701 123.501,341.867 132.5,343C 136.679,344.681 139.679,347.515 141.5,351.5 Z"/></g>
<g><path style="opacity:1" fill="#209cab" d="M 161.5,333.5 C 161.993,335.806 162.326,338.139 162.5,340.5C 165.167,340.5 167.833,340.5 170.5,340.5C 170.343,337.656 171.676,335.989 174.5,335.5C 175.5,335.833 176.167,336.5 176.5,337.5C 175.508,337.328 174.842,337.662 174.5,338.5C 172.516,338.484 171.516,339.484 171.5,341.5C 171.942,342.739 172.609,343.739 173.5,344.5C 168.167,344.5 162.833,344.5 157.5,344.5C 159.792,341.192 161.125,337.526 161.5,333.5 Z"/></g>
<g><path style="opacity:1" fill="#fcfefe" d="M 354.5,341.5 C 351.21,354.617 348.543,367.95 346.5,381.5C 344.251,389.558 342.918,397.892 342.5,406.5C 337.744,407.071 333.077,408.071 328.5,409.5C 327.702,409.043 327.369,408.376 327.5,407.5C 327.265,396.675 325.932,386.009 323.5,375.5C 320.448,384.846 318.782,394.512 318.5,404.5C 317.566,405.568 317.232,406.901 317.5,408.5C 313.138,409.372 308.804,410.372 304.5,411.5C 308.6,390.23 312.267,368.897 315.5,347.5C 315.433,346.041 315.766,344.708 316.5,343.5C 318.167,343.5 319.833,343.5 321.5,343.5C 324.5,343.5 327.5,343.5 330.5,343.5C 331.85,354.955 333.85,366.288 336.5,377.5C 338.09,371.214 339.424,364.881 340.5,358.5C 342.145,353.667 343.145,348.667 343.5,343.5C 346.997,342.598 350.663,341.931 354.5,341.5 Z"/></g>
<g><path style="opacity:1" fill="#f9fcfd" d="M 395.5,344.5 C 391.625,359.881 388.625,375.548 386.5,391.5C 385.238,396.791 384.238,402.125 383.5,407.5C 380.873,408.092 378.206,408.425 375.5,408.5C 373.833,408.5 372.167,408.5 370.5,408.5C 371.621,399.136 372.955,389.803 374.5,380.5C 371.14,380.616 367.807,380.949 364.5,381.5C 363.407,388.485 362.407,395.485 361.5,402.5C 360.897,404.679 360.23,406.846 359.5,409C 355.57,409.242 351.903,410.075 348.5,411.5C 347.833,411.5 347.167,411.5 346.5,411.5C 350.392,389.145 354.392,366.812 358.5,344.5C 362.97,343.514 367.637,343.181 372.5,343.5C 372.037,346.482 371.704,349.482 371.5,352.5C 369.933,353.681 369.099,355.347 369,357.5C 367.925,361.77 367.425,366.103 367.5,370.5C 370.545,370.492 373.545,370.159 376.5,369.5C 377.554,364.893 378.221,360.227 378.5,355.5C 379.819,351.584 381.152,347.584 382.5,343.5C 387.166,342.349 391.833,342.349 396.5,343.5C 396.376,344.107 396.043,344.44 395.5,344.5 Z"/></g>
<g><path style="opacity:1" fill="#5fb1c2" d="M 219.5,337.5 C 224.563,340.224 223.897,341.89 217.5,342.5C 217.5,345.5 217.5,348.5 217.5,351.5C 216.876,353.754 215.543,355.421 213.5,356.5C 212.29,356.068 211.29,355.401 210.5,354.5C 212.017,354.489 213.184,353.823 214,352.5C 214.498,349.183 214.665,345.85 214.5,342.5C 212.297,342.396 210.297,341.73 208.5,340.5C 212.442,340.125 216.109,339.125 219.5,337.5 Z"/></g>
<g><path style="opacity:1" fill="#fbfdfe" d="M 305.5,342.5 C 305.5,344.5 305.5,346.5 305.5,348.5C 303.846,368.315 302.679,388.315 302,408.5C 297.287,409.768 292.454,410.435 287.5,410.5C 287.916,405.507 288.249,400.507 288.5,395.5C 285.5,395.5 282.5,395.5 279.5,395.5C 278.656,399.874 277.656,404.207 276.5,408.5C 271.731,409.889 266.731,410.556 261.5,410.5C 266.048,394.862 270.381,379.195 274.5,363.5C 276.585,361.316 277.585,358.649 277.5,355.5C 278.5,352.167 279.5,348.833 280.5,345.5C 283.059,345.802 285.393,345.468 287.5,344.5C 290.57,344.632 293.57,344.299 296.5,343.5C 299.545,343.492 302.545,343.159 305.5,342.5 Z"/></g>
<g><path style="opacity:1" fill="#fbfdfe" d="M 157.5,344.5 C 162.833,344.5 168.167,344.5 173.5,344.5C 174.492,344.328 175.158,344.662 175.5,345.5C 177.411,352.957 179.744,360.291 182.5,367.5C 183.747,372.929 185.747,377.929 188.5,382.5C 190.937,392.47 193.937,402.137 197.5,411.5C 192.833,411.5 188.167,411.5 183.5,411.5C 183.072,408.215 182.072,405.215 180.5,402.5C 180.326,400.139 179.993,397.806 179.5,395.5C 170.833,395.5 162.167,395.5 153.5,395.5C 151.554,400.672 150.221,406.005 149.5,411.5C 144.5,411.5 139.5,411.5 134.5,411.5C 135.038,409.883 135.371,408.216 135.5,406.5C 140.742,393.444 145.409,380.111 149.5,366.5C 152.918,360.306 155.251,353.639 156.5,346.5C 157.338,346.158 157.672,345.492 157.5,344.5 Z"/></g>
<g><path style="opacity:1" fill="#137485" d="M 281.5,337.5 C 281.433,339.401 281.767,341.234 282.5,343C 281.944,344.011 281.278,344.844 280.5,345.5C 279.5,348.833 278.5,352.167 277.5,355.5C 269.356,360.408 261.022,365.075 252.5,369.5C 251.548,367.955 251.215,366.288 251.5,364.5C 255.864,362.656 259.864,360.323 263.5,357.5C 264.833,357.167 266.167,356.833 267.5,356.5C 269.099,354.396 270.932,352.396 273,350.5C 274.277,346.632 276.61,343.632 280,341.5C 280.21,339.942 280.71,338.609 281.5,337.5 Z"/></g>
<g><path style="opacity:1" fill="#167e8a" d="M 157.5,327.5 C 159.833,327.5 162.167,327.5 164.5,327.5C 164.386,329.718 163.72,331.718 162.5,333.5C 162.167,333.5 161.833,333.5 161.5,333.5C 161.125,337.526 159.792,341.192 157.5,344.5C 157.672,345.492 157.338,346.158 156.5,346.5C 155.25,346.577 154.417,347.244 154,348.5C 153.503,350.81 153.337,353.143 153.5,355.5C 152.178,355.33 151.011,355.663 150,356.5C 148.034,360.48 146.034,364.48 144,368.5C 143.995,365.546 144.161,362.546 144.5,359.5C 144.461,357.048 143.794,355.048 142.5,353.5C 142.672,352.508 142.338,351.842 141.5,351.5C 139.679,347.515 136.679,344.681 132.5,343C 123.501,341.867 114.835,342.701 106.5,345.5C 105.833,346.167 105.167,346.833 104.5,347.5C 104.5,346.833 104.5,346.167 104.5,345.5C 105.453,343.39 107.119,342.223 109.5,342C 121.99,338.648 133.656,340.314 144.5,347C 146.167,347.667 147.833,347.667 149.5,347C 158.002,342.78 160.669,336.28 157.5,327.5 Z"/></g>
<g><path style="opacity:1" fill="#48c2d1" d="M 354.5,341.5 C 355.167,341.5 355.5,341.833 355.5,342.5C 354.956,346.64 355.956,347.307 358.5,344.5C 354.392,366.812 350.392,389.145 346.5,411.5C 346.028,409.469 345.028,407.802 343.5,406.5C 344.631,398.179 345.631,389.846 346.5,381.5C 348.543,367.95 351.21,354.617 354.5,341.5 Z"/></g>
<g><path style="opacity:1" fill="#9decf8" d="M 235.5,337.5 C 245.404,337.95 253.071,342.284 258.5,350.5C 259.298,350.043 259.631,349.376 259.5,348.5C 261.205,351.261 262.538,354.261 263.5,357.5C 259.864,360.323 255.864,362.656 251.5,364.5C 251.167,364.5 250.833,364.5 250.5,364.5C 250.666,360.486 250.499,356.486 250,352.5C 247.663,345.578 242.829,341.911 235.5,341.5C 235.5,340.167 235.5,338.833 235.5,337.5 Z"/></g>
<g><path style="opacity:1" fill="#2597a5" d="M 355.5,342.5 C 361.5,342.5 367.5,342.5 373.5,342.5C 373.784,345.254 374.451,347.92 375.5,350.5C 377.667,347.951 380,345.617 382.5,343.5C 381.152,347.584 379.819,351.584 378.5,355.5C 377.883,355.611 377.383,355.944 377,356.5C 376.818,359.226 376.318,361.893 375.5,364.5C 374.476,365.853 373.143,366.52 371.5,366.5C 371.5,361.833 371.5,357.167 371.5,352.5C 371.704,349.482 372.037,346.482 372.5,343.5C 367.637,343.181 362.97,343.514 358.5,344.5C 355.956,347.307 354.956,346.64 355.5,342.5 Z"/></g>
<g><path style="opacity:1" fill="#41e3f6" d="M 277.5,355.5 C 277.585,358.649 276.585,361.316 274.5,363.5C 271.797,365.181 269.131,366.847 266.5,368.5C 260.675,371.245 255.008,374.245 249.5,377.5C 248.833,378.5 248.167,379.5 247.5,380.5C 248.522,375.141 249.522,369.807 250.5,364.5C 250.833,364.5 251.167,364.5 251.5,364.5C 251.215,366.288 251.548,367.955 252.5,369.5C 261.022,365.075 269.356,360.408 277.5,355.5 Z"/></g>
<g><path style="opacity:1" fill="#0d4d54" d="M 182.5,342.5 C 189.833,347.5 197.167,352.5 204.5,357.5C 204.276,361.562 202.276,364.395 198.5,366C 194.895,366.536 191.895,365.369 189.5,362.5C 185.885,357.102 183.218,351.269 181.5,345C 181.528,343.93 181.861,343.097 182.5,342.5 Z"/></g>
<g><path style="opacity:1" fill="#3bbece" d="M 118.5,355.5 C 120.927,355.523 123.26,356.023 125.5,357C 128.473,358.224 129.14,360.224 127.5,363C 124.395,364.868 121.062,366.035 117.5,366.5C 117.244,362.731 117.577,359.064 118.5,355.5 Z"/></g>
<g><path style="opacity:1" fill="#3c98a3" d="M 395.5,344.5 C 394.209,360.631 391.209,376.298 386.5,391.5C 388.625,375.548 391.625,359.881 395.5,344.5 Z"/></g>
<g><path style="opacity:1" fill="#31acbb" d="M 343.5,343.5 C 343.145,348.667 342.145,353.667 340.5,358.5C 339.207,359.842 338.374,361.509 338,363.5C 336.989,364.337 335.822,364.67 334.5,364.5C 334.112,359.781 333.445,355.114 332.5,350.5C 334.311,351.822 336.311,352.322 338.5,352C 340.585,349.318 342.252,346.484 343.5,343.5 Z"/></g>
<g><path style="opacity:1" fill="#1f95a3" d="M 156.5,346.5 C 155.251,353.639 152.918,360.306 149.5,366.5C 148.504,366.414 147.671,366.748 147,367.5C 145.332,374.004 143.165,380.337 140.5,386.5C 139.833,387.833 139.167,387.833 138.5,386.5C 137.499,382.655 135.833,379.155 133.5,376C 137.215,372.074 140.048,367.574 142,362.5C 142.498,359.518 142.665,356.518 142.5,353.5C 143.794,355.048 144.461,357.048 144.5,359.5C 144.161,362.546 143.995,365.546 144,368.5C 146.034,364.48 148.034,360.48 150,356.5C 151.011,355.663 152.178,355.33 153.5,355.5C 153.337,353.143 153.503,350.81 154,348.5C 154.417,347.244 155.25,346.577 156.5,346.5 Z"/></g>
<g><path style="opacity:1" fill="#5ccbd9" d="M 321.5,343.5 C 324.625,342.521 327.958,342.187 331.5,342.5C 331.833,345.167 332.167,347.833 332.5,350.5C 333.445,355.114 334.112,359.781 334.5,364.5C 335.822,364.67 336.989,364.337 338,363.5C 338.374,361.509 339.207,359.842 340.5,358.5C 339.424,364.881 338.09,371.214 336.5,377.5C 333.85,366.288 331.85,354.955 330.5,343.5C 327.5,343.5 324.5,343.5 321.5,343.5 Z"/></g>
<g><path style="opacity:1" fill="#24afc2" d="M 237.5,364.5 C 237.785,366.288 237.452,367.955 236.5,369.5C 232.851,368.196 229.851,366.196 227.5,363.5C 230.191,361.334 233.191,361.001 236.5,362.5C 237.298,362.957 237.631,363.624 237.5,364.5 Z"/></g>
<g><path style="opacity:1" fill="#3a98a3" d="M 106.5,345.5 C 104.23,362.423 101.23,379.09 97.5,395.5C 97.3339,389.824 97.5006,384.157 98,378.5C 100.131,368.018 102.298,357.685 104.5,347.5C 105.167,346.833 105.833,346.167 106.5,345.5 Z"/></g>
<g><path style="opacity:1" fill="#45e4f7" d="M 227.5,363.5 C 229.851,366.196 232.851,368.196 236.5,369.5C 237.452,367.955 237.785,366.288 237.5,364.5C 238.638,367.304 238.805,370.304 238,373.5C 237.844,376.191 237.011,378.524 235.5,380.5C 235.421,379.07 235.754,377.736 236.5,376.5C 236.145,375.478 235.478,374.811 234.5,374.5C 231.167,372.833 227.833,371.167 224.5,369.5C 224.158,368.662 223.492,368.328 222.5,368.5C 223.167,365.833 224.833,364.167 227.5,363.5 Z"/></g>
<g><path style="opacity:1" fill="#58cddc" d="M 289.5,354.5 C 290.5,354.5 291.5,354.5 292.5,354.5C 291.943,364.851 291.11,375.184 290,385.5C 287.959,386.423 285.792,386.756 283.5,386.5C 284.86,375.724 286.86,365.057 289.5,354.5 Z"/></g>
<g><path style="opacity:1" fill="#1ca6b5" d="M 305.5,342.5 C 305.833,342.5 306.167,342.5 306.5,342.5C 306.694,345.33 307.361,347.996 308.5,350.5C 309.833,350.5 311.167,350.5 312.5,350.5C 312.216,347.143 313.549,344.809 316.5,343.5C 315.766,344.708 315.433,346.041 315.5,347.5C 311.263,357.935 309.096,368.935 309,380.5C 308.286,383.595 307.286,386.595 306,389.5C 305.5,375.837 305.333,362.171 305.5,348.5C 305.5,346.5 305.5,344.5 305.5,342.5 Z"/></g>
<g><path style="opacity:1" fill="#38b6c5" d="M 371.5,352.5 C 371.5,357.167 371.5,361.833 371.5,366.5C 373.143,366.52 374.476,365.853 375.5,364.5C 376.318,361.893 376.818,359.226 377,356.5C 377.383,355.944 377.883,355.611 378.5,355.5C 378.221,360.227 377.554,364.893 376.5,369.5C 373.545,370.159 370.545,370.492 367.5,370.5C 367.425,366.103 367.925,361.77 369,357.5C 369.099,355.347 369.933,353.681 371.5,352.5 Z"/></g>
<g><path style="opacity:1" fill="#0b454b" d="M 314.5,335.5 C 327.27,336.696 340.27,336.696 353.5,335.5C 366.136,336.793 378.803,337.793 391.5,338.5C 394.505,338.253 397.005,339.253 399,341.5C 399.828,347.922 400.662,354.089 401.5,360C 399.825,371.876 397.659,383.71 395,395.5C 393.941,398.618 392.608,401.618 391,404.5C 390.329,405.252 389.496,405.586 388.5,405.5C 390.733,392.066 393.233,378.732 396,365.5C 397.169,357.49 397.336,349.49 396.5,341.5C 381.04,341.485 365.54,340.818 350,339.5C 345.632,339.957 341.298,340.623 337,341.5C 329.85,340.511 322.683,340.344 315.5,341C 312.941,344.149 310.275,344.316 307.5,341.5C 309.833,339.5 312.167,337.5 314.5,335.5 Z"/></g>
<g><path style="opacity:1" fill="#92d4dc" d="M 182.5,367.5 C 185.253,372.071 187.253,377.071 188.5,382.5C 185.747,377.929 183.747,372.929 182.5,367.5 Z"/></g>
<g><path style="opacity:1" fill="#1a9dab" d="M 171.5,372.5 C 171.5,373.833 171.5,375.167 171.5,376.5C 171.5,378.167 171.5,379.833 171.5,381.5C 168.167,381.5 164.833,381.5 161.5,381.5C 162.085,376.156 163.419,370.989 165.5,366C 166.549,365.508 167.549,365.674 168.5,366.5C 169.518,368.594 170.518,370.594 171.5,372.5 Z"/></g>
<g><path style="opacity:1" fill="#157e89" d="M 224.5,369.5 C 227.833,371.167 231.167,372.833 234.5,374.5C 233.938,379.749 232.605,384.749 230.5,389.5C 229.5,389.5 228.5,389.5 227.5,389.5C 226.618,393.143 224.284,394.31 220.5,393C 220,392.5 219.5,392 219,391.5C 218.308,386.109 218.641,380.775 220,375.5C 221.277,373.253 222.777,371.253 224.5,369.5 Z"/></g>
<g><path style="opacity:1" fill="#166b74" d="M 104.5,345.5 C 104.5,346.167 104.5,346.833 104.5,347.5C 102.298,357.685 100.131,368.018 98,378.5C 97.5006,384.157 97.3339,389.824 97.5,395.5C 96.4992,400.839 95.4992,406.172 94.5,411.5C 93.3493,406.35 93.1826,401.016 94,395.5C 95.409,382.046 97.5757,368.712 100.5,355.5C 100.873,352.426 101.539,349.426 102.5,346.5C 103.167,346.167 103.833,345.833 104.5,345.5 Z"/></g>
<g><path style="opacity:1" fill="#11666f" d="M 176.5,337.5 C 178.909,338.701 180.909,340.367 182.5,342.5C 181.861,343.097 181.528,343.93 181.5,345C 183.218,351.269 185.885,357.102 189.5,362.5C 191.895,365.369 194.895,366.536 198.5,366C 202.276,364.395 204.276,361.562 204.5,357.5C 205.5,358.167 206.5,358.833 207.5,359.5C 205.364,364.318 203.697,369.318 202.5,374.5C 197.724,380.056 193.224,379.723 189,373.5C 186.631,366.003 183.965,358.67 181,351.5C 178.786,347.071 176.619,342.738 174.5,338.5C 174.842,337.662 175.508,337.328 176.5,337.5 Z"/></g>
<g><path style="opacity:1" fill="#137985" d="M 174.5,338.5 C 176.619,342.738 178.786,347.071 181,351.5C 183.965,358.67 186.631,366.003 189,373.5C 193.224,379.723 197.724,380.056 202.5,374.5C 201.352,378.484 199.185,381.818 196,384.5C 194.269,383.259 192.436,382.259 190.5,381.5C 185.968,369.128 180.968,357.128 175.5,345.5C 175.158,344.662 174.492,344.328 173.5,344.5C 172.609,343.739 171.942,342.739 171.5,341.5C 171.516,339.484 172.516,338.484 174.5,338.5 Z"/></g>
<g><path style="opacity:1" fill="#116771" d="M 388.5,405.5 C 387.867,408.134 386.2,409.8 383.5,410.5C 381.565,411.15 379.565,411.483 377.5,411.5C 371.819,411.365 366.152,411.032 360.5,410.5C 362.949,406.654 365.115,402.654 367,398.5C 368.424,402.297 368.924,406.297 368.5,410.5C 372.182,410.665 375.848,410.499 379.5,410C 381.32,409.8 382.653,408.966 383.5,407.5C 384.238,402.125 385.238,396.791 386.5,391.5C 391.209,376.298 394.209,360.631 395.5,344.5C 396.043,344.44 396.376,344.107 396.5,343.5C 391.833,342.349 387.166,342.349 382.5,343.5C 380,345.617 377.667,347.951 375.5,350.5C 374.451,347.92 373.784,345.254 373.5,342.5C 367.5,342.5 361.5,342.5 355.5,342.5C 355.5,341.833 355.167,341.5 354.5,341.5C 350.663,341.931 346.997,342.598 343.5,343.5C 342.252,346.484 340.585,349.318 338.5,352C 336.311,352.322 334.311,351.822 332.5,350.5C 332.167,347.833 331.833,345.167 331.5,342.5C 327.958,342.187 324.625,342.521 321.5,343.5C 319.833,343.5 318.167,343.5 316.5,343.5C 313.549,344.809 312.216,347.143 312.5,350.5C 311.167,350.5 309.833,350.5 308.5,350.5C 307.361,347.996 306.694,345.33 306.5,342.5C 306.5,341.833 306.833,341.5 307.5,341.5C 310.275,344.316 312.941,344.149 315.5,341C 322.683,340.344 329.85,340.511 337,341.5C 341.298,340.623 345.632,339.957 350,339.5C 365.54,340.818 381.04,341.485 396.5,341.5C 397.336,349.49 397.169,357.49 396,365.5C 393.233,378.732 390.733,392.066 388.5,405.5 Z"/></g>
<g><path style="opacity:1" fill="#3bb7c6" d="M 171.5,372.5 C 170.518,370.594 169.518,368.594 168.5,366.5C 167.549,365.674 166.549,365.508 165.5,366C 163.419,370.989 162.085,376.156 161.5,381.5C 164.833,381.5 168.167,381.5 171.5,381.5C 171.5,379.833 171.5,378.167 171.5,376.5C 172.924,378.515 173.59,380.848 173.5,383.5C 168.456,383.827 163.456,383.494 158.5,382.5C 159.309,380.929 159.643,379.262 159.5,377.5C 161.323,370.513 163.157,363.513 165,356.5C 165.414,356.043 165.914,355.709 166.5,355.5C 168.774,360.988 170.44,366.654 171.5,372.5 Z"/></g>
<g><path style="opacity:1" fill="#9be2ea" d="M 171.5,372.5 C 173.405,376.216 174.739,380.216 175.5,384.5C 169.5,384.5 163.5,384.5 157.5,384.5C 157.41,381.848 158.076,379.515 159.5,377.5C 159.643,379.262 159.309,380.929 158.5,382.5C 163.456,383.494 168.456,383.827 173.5,383.5C 173.59,380.848 172.924,378.515 171.5,376.5C 171.5,375.167 171.5,373.833 171.5,372.5 Z"/></g>
<g><path style="opacity:1" fill="#33a7b5" d="M 222.5,368.5 C 223.492,368.328 224.158,368.662 224.5,369.5C 222.777,371.253 221.277,373.253 220,375.5C 218.641,380.775 218.308,386.109 219,391.5C 219.5,392 220,392.5 220.5,393C 224.284,394.31 226.618,393.143 227.5,389.5C 228.5,389.5 229.5,389.5 230.5,389.5C 232.605,384.749 233.938,379.749 234.5,374.5C 235.478,374.811 236.145,375.478 236.5,376.5C 235.754,377.736 235.421,379.07 235.5,380.5C 234.807,386.707 231.807,391.541 226.5,395C 222.487,397.461 218.987,396.961 216,393.5C 214.016,383.973 216.182,375.64 222.5,368.5 Z"/></g>
<g><path style="opacity:1" fill="#57c5d3" d="M 315.5,347.5 C 312.267,368.897 308.6,390.23 304.5,411.5C 298.553,410.818 292.553,410.818 286.5,411.5C 286.5,407.5 286.5,403.5 286.5,399.5C 284.738,399.357 283.071,399.691 281.5,400.5C 279.812,403.221 278.145,405.888 276.5,408.5C 277.656,404.207 278.656,399.874 279.5,395.5C 282.5,395.5 285.5,395.5 288.5,395.5C 288.249,400.507 287.916,405.507 287.5,410.5C 292.454,410.435 297.287,409.768 302,408.5C 302.679,388.315 303.846,368.315 305.5,348.5C 305.333,362.171 305.5,375.837 306,389.5C 307.286,386.595 308.286,383.595 309,380.5C 309.096,368.935 311.263,357.935 315.5,347.5 Z"/></g>
<g><path style="opacity:1" fill="#92dee7" d="M 346.5,381.5 C 345.631,389.846 344.631,398.179 343.5,406.5C 343.167,406.5 342.833,406.5 342.5,406.5C 342.918,397.892 344.251,389.558 346.5,381.5 Z"/></g>
<g><path style="opacity:1" fill="#31b6c6" d="M 114.5,378.5 C 118.131,378.16 121.464,378.994 124.5,381C 126.19,384.525 125.524,387.525 122.5,390C 119.392,391.759 116.059,392.592 112.5,392.5C 112.538,387.729 113.204,383.062 114.5,378.5 Z"/></g>
<g><path style="opacity:1" fill="#228f9b" d="M 207.5,359.5 C 209.104,360.287 209.771,361.62 209.5,363.5C 206.853,369.464 204.519,375.464 202.5,381.5C 200.557,386.897 200.057,392.564 201,398.5C 201.566,400.723 202.4,402.723 203.5,404.5C 207.348,411.046 213.015,413.212 220.5,411C 234.274,405.06 243.274,394.893 247.5,380.5C 248.167,379.5 248.833,378.5 249.5,377.5C 249.662,379.527 249.495,381.527 249,383.5C 246.104,387.833 243.771,392.5 242,397.5C 234.26,409.086 223.426,413.92 209.5,412C 205.867,411.18 202.867,409.347 200.5,406.5C 199.83,408.291 199.163,409.958 198.5,411.5C 196.442,401.264 193.776,391.264 190.5,381.5C 192.436,382.259 194.269,383.259 196,384.5C 199.185,381.818 201.352,378.484 202.5,374.5C 203.697,369.318 205.364,364.318 207.5,359.5 Z"/></g>
<g><path style="opacity:1" fill="#49becd" d="M 327.5,407.5 C 326.427,403.892 324.76,400.558 322.5,397.5C 320.873,399.765 319.539,402.099 318.5,404.5C 318.782,394.512 320.448,384.846 323.5,375.5C 325.932,386.009 327.265,396.675 327.5,407.5 Z"/></g>
<g><path style="opacity:1" fill="#3aa6b3" d="M 175.5,345.5 C 180.968,357.128 185.968,369.128 190.5,381.5C 193.776,391.264 196.442,401.264 198.5,411.5C 198.167,411.5 197.833,411.5 197.5,411.5C 193.937,402.137 190.937,392.47 188.5,382.5C 187.253,377.071 185.253,372.071 182.5,367.5C 179.744,360.291 177.411,352.957 175.5,345.5 Z"/></g>
<g><path style="opacity:1" fill="#2295a2" d="M 375.5,408.5 C 378.206,408.425 380.873,408.092 383.5,407.5C 382.653,408.966 381.32,409.8 379.5,410C 375.848,410.499 372.182,410.665 368.5,410.5C 368.924,406.297 368.424,402.297 367,398.5C 365.115,402.654 362.949,406.654 360.5,410.5C 358.435,410.517 356.435,410.85 354.5,411.5C 352.5,411.5 350.5,411.5 348.5,411.5C 351.903,410.075 355.57,409.242 359.5,409C 360.23,406.846 360.897,404.679 361.5,402.5C 363.426,397.077 364.926,391.41 366,385.5C 367.444,383.845 369.278,383.178 371.5,383.5C 369.858,392.075 369.191,400.741 369.5,409.5C 371.735,409.795 373.735,409.461 375.5,408.5 Z"/></g>
<g><path style="opacity:1" fill="#51b8c5" d="M 375.5,408.5 C 373.735,409.461 371.735,409.795 369.5,409.5C 369.191,400.741 369.858,392.075 371.5,383.5C 369.278,383.178 367.444,383.845 366,385.5C 364.926,391.41 363.426,397.077 361.5,402.5C 362.407,395.485 363.407,388.485 364.5,381.5C 367.807,380.949 371.14,380.616 374.5,380.5C 372.955,389.803 371.621,399.136 370.5,408.5C 372.167,408.5 373.833,408.5 375.5,408.5 Z"/></g>
<g><path style="opacity:1" fill="#63c4cf" d="M 180.5,402.5 C 179.609,400.709 178.609,398.876 177.5,397C 170.5,396.333 163.5,396.333 156.5,397C 154.859,398.129 153.859,399.629 153.5,401.5C 151.949,404.836 150.615,408.169 149.5,411.5C 150.221,406.005 151.554,400.672 153.5,395.5C 162.167,395.5 170.833,395.5 179.5,395.5C 179.993,397.806 180.326,400.139 180.5,402.5 Z"/></g>
<g><path style="opacity:1" fill="#3bb3c2" d="M 141.5,351.5 C 142.338,351.842 142.672,352.508 142.5,353.5C 142.665,356.518 142.498,359.518 142,362.5C 140.048,367.574 137.215,372.074 133.5,376C 135.833,379.155 137.499,382.655 138.5,386.5C 139.167,387.833 139.833,387.833 140.5,386.5C 143.165,380.337 145.332,374.004 147,367.5C 147.671,366.748 148.504,366.414 149.5,366.5C 145.409,380.111 140.742,393.444 135.5,406.5C 135.799,404.396 135.466,402.396 134.5,400.5C 132.925,401.456 131.258,402.123 129.5,402.5C 137.499,393.161 137.499,383.827 129.5,374.5C 137.993,369.181 141.993,361.514 141.5,351.5 Z"/></g>
<g><path style="opacity:1" fill="#289ca9" d="M 180.5,402.5 C 182.072,405.215 183.072,408.215 183.5,411.5C 188.167,411.5 192.833,411.5 197.5,411.5C 192.695,412.487 187.695,412.821 182.5,412.5C 182.481,410.94 182.148,409.44 181.5,408C 179.427,404.927 177.427,401.76 175.5,398.5C 169.863,397.337 164.196,397.17 158.5,398C 156.677,398.997 155.01,400.164 153.5,401.5C 153.859,399.629 154.859,398.129 156.5,397C 163.5,396.333 170.5,396.333 177.5,397C 178.609,398.876 179.609,400.709 180.5,402.5 Z"/></g>
<g><path style="opacity:1" fill="#278c98" d="M 274.5,363.5 C 270.381,379.195 266.048,394.862 261.5,410.5C 266.731,410.556 271.731,409.889 276.5,408.5C 278.145,405.888 279.812,403.221 281.5,400.5C 283.071,399.691 284.738,399.357 286.5,399.5C 286.5,403.5 286.5,407.5 286.5,411.5C 285.244,409.656 283.577,408.323 281.5,407.5C 279.512,409.161 277.179,410.328 274.5,411C 269.845,411.499 265.179,411.666 260.5,411.5C 260.5,410.833 260.5,410.167 260.5,409.5C 260.952,405.837 261.452,402.17 262,398.5C 265.758,389.729 267.924,380.562 268.5,371C 268.316,369.624 267.649,368.791 266.5,368.5C 269.131,366.847 271.797,365.181 274.5,363.5 Z"/></g>
<g><path style="opacity:1" fill="#7dcdd7" d="M 202.5,381.5 C 202.309,389.201 202.642,396.868 203.5,404.5C 202.4,402.723 201.566,400.723 201,398.5C 200.057,392.564 200.557,386.897 202.5,381.5 Z"/></g>
<g><path style="opacity:1" fill="#22919d" d="M 327.5,407.5 C 327.369,408.376 327.702,409.043 328.5,409.5C 333.077,408.071 337.744,407.071 342.5,406.5C 342.833,406.5 343.167,406.5 343.5,406.5C 338.279,409.385 332.612,410.552 326.5,410C 325.274,408.365 323.941,406.865 322.5,405.5C 321.06,406.952 319.394,407.952 317.5,408.5C 317.232,406.901 317.566,405.568 318.5,404.5C 319.539,402.099 320.873,399.765 322.5,397.5C 324.76,400.558 326.427,403.892 327.5,407.5 Z"/></g>
<g><path style="opacity:1" fill="#1e838f" d="M 135.5,406.5 C 135.371,408.216 135.038,409.883 134.5,411.5C 132.918,410.124 131.085,409.124 129,408.5C 123.303,409.502 117.803,411.002 112.5,413C 107.511,413.499 102.511,413.666 97.5,413.5C 95.9731,413.573 94.9731,412.906 94.5,411.5C 107.272,412.391 118.939,409.391 129.5,402.5C 131.258,402.123 132.925,401.456 134.5,400.5C 135.466,402.396 135.799,404.396 135.5,406.5 Z"/></g>
<g><path style="opacity:1" fill="#0c4c53" d="M 100.5,355.5 C 97.5757,368.712 95.409,382.046 94,395.5C 93.1826,401.016 93.3493,406.35 94.5,411.5C 94.9731,412.906 95.9731,413.573 97.5,413.5C 100.314,414.165 103.314,414.498 106.5,414.5C 113.047,414.237 119.547,413.571 126,412.5C 134.431,414.798 142.931,414.965 151.5,413C 155.889,409.26 160.889,406.76 166.5,405.5C 169.666,405.449 172.666,406.116 175.5,407.5C 176.641,409.808 178.308,411.641 180.5,413C 188.143,413.993 195.643,413.493 203,411.5C 206.775,413.387 210.775,414.387 215,414.5C 219.823,413.725 224.657,413.058 229.5,412.5C 228.64,414.614 226.973,415.78 224.5,416C 220.736,416.985 216.903,417.485 213,417.5C 203.838,416.917 194.671,416.417 185.5,416C 181.456,415.144 177.789,413.478 174.5,411C 165.475,407.965 157.475,409.632 150.5,416C 142.319,416.822 134.319,416.322 126.5,414.5C 117.227,416.05 107.894,416.717 98.5,416.5C 96.0202,415.758 93.6869,414.758 91.5,413.5C 91.5,412.833 91.5,412.167 91.5,411.5C 91.1686,402.808 91.502,394.141 92.5,385.5C 94.1063,378.198 95.6063,370.864 97,363.5C 98.1723,360.769 99.3389,358.102 100.5,355.5 Z"/></g>
<g><path style="opacity:1" fill="#10656f" d="M 266.5,368.5 C 267.649,368.791 268.316,369.624 268.5,371C 267.924,380.562 265.758,389.729 262,398.5C 261.452,402.17 260.952,405.837 260.5,409.5C 259.82,401.432 259.153,393.265 258.5,385C 259.93,383.12 259.596,381.62 257.5,380.5C 252.16,387.668 246.66,394.668 241,401.5C 237.271,405.398 233.438,409.065 229.5,412.5C 224.657,413.058 219.823,413.725 215,414.5C 210.775,414.387 206.775,413.387 203,411.5C 195.643,413.493 188.143,413.993 180.5,413C 178.308,411.641 176.641,409.808 175.5,407.5C 172.666,406.116 169.666,405.449 166.5,405.5C 160.889,406.76 155.889,409.26 151.5,413C 142.931,414.965 134.431,414.798 126,412.5C 119.547,413.571 113.047,414.237 106.5,414.5C 103.314,414.498 100.314,414.165 97.5,413.5C 102.511,413.666 107.511,413.499 112.5,413C 117.803,411.002 123.303,409.502 129,408.5C 131.085,409.124 132.918,410.124 134.5,411.5C 139.5,411.5 144.5,411.5 149.5,411.5C 150.615,408.169 151.949,404.836 153.5,401.5C 155.01,400.164 156.677,398.997 158.5,398C 164.196,397.17 169.863,397.337 175.5,398.5C 177.427,401.76 179.427,404.927 181.5,408C 182.148,409.44 182.481,410.94 182.5,412.5C 187.695,412.821 192.695,412.487 197.5,411.5C 197.833,411.5 198.167,411.5 198.5,411.5C 199.163,409.958 199.83,408.291 200.5,406.5C 202.867,409.347 205.867,411.18 209.5,412C 223.426,413.92 234.26,409.086 242,397.5C 243.771,392.5 246.104,387.833 249,383.5C 249.495,381.527 249.662,379.527 249.5,377.5C 255.008,374.245 260.675,371.245 266.5,368.5 Z"/></g>
<g><path style="opacity:1" fill="#157883" d="M 343.5,406.5 C 345.028,407.802 346.028,409.469 346.5,411.5C 347.167,411.5 347.833,411.5 348.5,411.5C 350.5,411.5 352.5,411.5 354.5,411.5C 346.66,411.247 338.66,411.247 330.5,411.5C 327.273,411.552 324.273,410.885 321.5,409.5C 316.696,411.979 311.53,413.312 306,413.5C 299.335,412.975 292.835,412.308 286.5,411.5C 292.553,410.818 298.553,410.818 304.5,411.5C 308.804,410.372 313.138,409.372 317.5,408.5C 319.394,407.952 321.06,406.952 322.5,405.5C 323.941,406.865 325.274,408.365 326.5,410C 332.612,410.552 338.279,409.385 343.5,406.5 Z"/></g>
<g><path style="opacity:1" fill="#0f5e66" d="M 286.5,411.5 C 292.835,412.308 299.335,412.975 306,413.5C 311.53,413.312 316.696,411.979 321.5,409.5C 324.273,410.885 327.273,411.552 330.5,411.5C 338.66,411.247 346.66,411.247 354.5,411.5C 356.435,410.85 358.435,410.517 360.5,410.5C 357.014,413.046 353.014,414.379 348.5,414.5C 333.178,413.512 317.845,413.512 302.5,414.5C 288.327,413.725 274.327,412.725 260.5,411.5C 265.179,411.666 269.845,411.499 274.5,411C 277.179,410.328 279.512,409.161 281.5,407.5C 283.577,408.323 285.244,409.656 286.5,411.5 Z"/></g>
<g><path style="opacity:1" fill="#052124" d="M 325.5,324.5 C 335.162,325.292 344.829,325.292 354.5,324.5C 365.121,326.326 375.788,327.826 386.5,329C 398.36,331.527 405.527,338.694 408,350.5C 408.727,364.353 407.394,378.019 404,391.5C 401.809,405.677 394.309,415.844 381.5,422C 370.974,424.772 360.308,426.772 349.5,428C 335.162,428.369 320.828,428.869 306.5,429.5C 286.022,428.979 265.855,426.313 246,421.5C 238.534,423.483 231.034,425.317 223.5,427C 204.298,429.598 185.131,428.764 166,424.5C 157.926,426.393 149.76,427.727 141.5,428.5C 129.201,427.176 116.867,426.343 104.5,426C 101.809,425.844 99.4758,425.011 97.5,423.5C 111.823,424.212 126.157,424.879 140.5,425.5C 149.165,425.083 157.665,423.75 166,421.5C 170.01,421.503 173.844,422.336 177.5,424C 192.167,424.667 206.833,424.667 221.5,424C 230.384,421.78 239.051,418.947 247.5,415.5C 254.045,417.934 260.712,420.1 267.5,422C 279.218,422.717 290.885,423.883 302.5,425.5C 320.454,423.974 338.454,423.141 356.5,423C 364.782,421.342 373.115,420.009 381.5,419C 383.618,417.951 385.284,416.451 386.5,414.5C 389.394,413.118 391.894,411.118 394,408.5C 403.248,390.039 407.248,370.373 406,349.5C 405.562,346.624 404.562,343.957 403,341.5C 399.887,338.548 396.387,336.215 392.5,334.5C 386.786,333.548 381.119,332.381 375.5,331C 357.526,329.691 339.526,329.191 321.5,329.5C 322.864,327.809 324.197,326.142 325.5,324.5 Z"/></g>
<g><path style="opacity:1" fill="#0d4d54" d="M 260.5,409.5 C 260.5,410.167 260.5,410.833 260.5,411.5C 274.327,412.725 288.327,413.725 302.5,414.5C 317.845,413.512 333.178,413.512 348.5,414.5C 353.014,414.379 357.014,413.046 360.5,410.5C 366.152,411.032 371.819,411.365 377.5,411.5C 369.498,411.989 361.498,413.322 353.5,415.5C 345.158,416.775 336.824,416.775 328.5,415.5C 318.979,416.67 309.645,417.67 300.5,418.5C 286.849,416.54 273.182,414.706 259.5,413C 259,412.5 258.5,412 258,411.5C 259.106,405.306 256.773,401.306 251,399.5C 246.813,400.677 242.98,402.511 239.5,405C 236.86,408.48 233.527,410.98 229.5,412.5C 233.438,409.065 237.271,405.398 241,401.5C 246.66,394.668 252.16,387.668 257.5,380.5C 259.596,381.62 259.93,383.12 258.5,385C 259.153,393.265 259.82,401.432 260.5,409.5 Z"/></g>
<g><path style="opacity:1" fill="#0b3d43" d="M 377.5,411.5 C 379.565,411.483 381.565,411.15 383.5,410.5C 381.086,412.213 378.419,413.713 375.5,415C 370.209,416.215 364.876,417.215 359.5,418C 340.986,418.022 322.486,418.856 304,420.5C 288.744,419.409 273.577,417.576 258.5,415C 254.298,410.86 249.298,409.527 243.5,411C 237.594,415.618 230.928,418.618 223.5,420C 210.5,420.667 197.5,420.667 184.5,420C 181.201,419.246 178.534,417.579 176.5,415C 173.389,413.278 170.056,412.445 166.5,412.5C 158.113,415.127 149.613,417.461 141,419.5C 131,418.167 121,418.167 111,419.5C 106.515,419.308 102.348,418.308 98.5,416.5C 107.894,416.717 117.227,416.05 126.5,414.5C 134.319,416.322 142.319,416.822 150.5,416C 157.475,409.632 165.475,407.965 174.5,411C 177.789,413.478 181.456,415.144 185.5,416C 194.671,416.417 203.838,416.917 213,417.5C 216.903,417.485 220.736,416.985 224.5,416C 226.973,415.78 228.64,414.614 229.5,412.5C 233.527,410.98 236.86,408.48 239.5,405C 242.98,402.511 246.813,400.677 251,399.5C 256.773,401.306 259.106,405.306 258,411.5C 258.5,412 259,412.5 259.5,413C 273.182,414.706 286.849,416.54 300.5,418.5C 309.645,417.67 318.979,416.67 328.5,415.5C 336.824,416.775 345.158,416.775 353.5,415.5C 361.498,413.322 369.498,411.989 377.5,411.5 Z"/></g>
<g><path style="opacity:1" fill="#083034" d="M 321.5,329.5 C 339.526,329.191 357.526,329.691 375.5,331C 381.119,332.381 386.786,333.548 392.5,334.5C 396.387,336.215 399.887,338.548 403,341.5C 404.562,343.957 405.562,346.624 406,349.5C 407.248,370.373 403.248,390.039 394,408.5C 391.894,411.118 389.394,413.118 386.5,414.5C 378.374,417.36 370.04,419.527 361.5,421C 329.772,423.915 298.105,423.582 266.5,420C 260.186,417.512 253.853,415.012 247.5,412.5C 239.799,416.354 231.799,419.521 223.5,422C 211.167,422.667 198.833,422.667 186.5,422C 180.144,419.546 173.644,417.713 167,416.5C 158.575,418.808 150.075,420.808 141.5,422.5C 128.843,421.792 116.177,421.292 103.5,421C 100.167,420 96.8333,419 93.5,418C 92.4178,416.67 91.7512,415.17 91.5,413.5C 93.6869,414.758 96.0202,415.758 98.5,416.5C 102.348,418.308 106.515,419.308 111,419.5C 121,418.167 131,418.167 141,419.5C 149.613,417.461 158.113,415.127 166.5,412.5C 170.056,412.445 173.389,413.278 176.5,415C 178.534,417.579 181.201,419.246 184.5,420C 197.5,420.667 210.5,420.667 223.5,420C 230.928,418.618 237.594,415.618 243.5,411C 249.298,409.527 254.298,410.86 258.5,415C 273.577,417.576 288.744,419.409 304,420.5C 322.486,418.856 340.986,418.022 359.5,418C 364.876,417.215 370.209,416.215 375.5,415C 378.419,413.713 381.086,412.213 383.5,410.5C 386.2,409.8 387.867,408.134 388.5,405.5C 389.496,405.586 390.329,405.252 391,404.5C 392.608,401.618 393.941,398.618 395,395.5C 397.659,383.71 399.825,371.876 401.5,360C 400.662,354.089 399.828,347.922 399,341.5C 397.005,339.253 394.505,338.253 391.5,338.5C 389.438,337.224 387.104,336.39 384.5,336C 362.614,332.883 340.614,331.717 318.5,332.5C 319.167,331.167 320.167,330.167 321.5,329.5 Z"/></g>
<g><path style="opacity:1" fill="#07282c" d="M 153.5,310.5 C 154.338,310.842 154.672,311.508 154.5,312.5C 154.762,313.978 154.429,315.311 153.5,316.5C 150.521,319.141 148.021,322.141 146,325.5C 144.167,326.667 142.333,327.833 140.5,329C 132.316,329.279 124.149,329.779 116,330.5C 112.258,332.136 108.425,333.469 104.5,334.5C 104.649,335.552 104.483,336.552 104,337.5C 98.2379,342.684 94.2379,349.018 92,356.5C 87.8621,372.934 86.1954,389.6 87,406.5C 87.5158,409.547 89.0158,411.88 91.5,413.5C 91.7512,415.17 92.4178,416.67 93.5,418C 96.8333,419 100.167,420 103.5,421C 116.177,421.292 128.843,421.792 141.5,422.5C 150.075,420.808 158.575,418.808 167,416.5C 173.644,417.713 180.144,419.546 186.5,422C 198.833,422.667 211.167,422.667 223.5,422C 231.799,419.521 239.799,416.354 247.5,412.5C 253.853,415.012 260.186,417.512 266.5,420C 298.105,423.582 329.772,423.915 361.5,421C 370.04,419.527 378.374,417.36 386.5,414.5C 385.284,416.451 383.618,417.951 381.5,419C 373.115,420.009 364.782,421.342 356.5,423C 338.454,423.141 320.454,423.974 302.5,425.5C 290.885,423.883 279.218,422.717 267.5,422C 260.712,420.1 254.045,417.934 247.5,415.5C 239.051,418.947 230.384,421.78 221.5,424C 206.833,424.667 192.167,424.667 177.5,424C 173.844,422.336 170.01,421.503 166,421.5C 157.665,423.75 149.165,425.083 140.5,425.5C 126.157,424.879 111.823,424.212 97.5,423.5C 94.5695,421.752 91.7361,419.752 89,417.5C 87.1676,413.679 85.8343,409.679 85,405.5C 85.1732,389.088 86.5065,372.755 89,356.5C 90.383,352.066 92.0496,347.732 94,343.5C 98.4568,338.365 103.457,334.032 109,330.5C 120.15,328.607 131.317,326.774 142.5,325C 145.883,321.072 149.383,317.239 153,313.5C 153.483,312.552 153.649,311.552 153.5,310.5 Z"/></g>
<g><path style="opacity:1" fill="#66d3df" d="M 245.5,433.5 C 245.5,438.5 245.5,443.5 245.5,448.5C 243.833,448.5 242.167,448.5 240.5,448.5C 240.5,445.833 240.5,443.167 240.5,440.5C 240.5,437.5 240.5,434.5 240.5,431.5C 241.919,430.549 243.585,430.216 245.5,430.5C 245.5,431.5 245.5,432.5 245.5,433.5 Z"/></g>
<g><path style="opacity:1" fill="#73ebf9" d="M 259.5,430.5 C 259.5,431.5 259.5,432.5 259.5,433.5C 258.167,433.5 256.833,433.5 255.5,433.5C 255.5,438.5 255.5,443.5 255.5,448.5C 254.167,448.5 252.833,448.5 251.5,448.5C 251.5,443.833 251.5,439.167 251.5,434.5C 250.167,434.5 248.833,434.5 247.5,434.5C 247.5,433.167 247.5,431.833 247.5,430.5C 251.5,430.5 255.5,430.5 259.5,430.5 Z"/></g>
<g><path style="opacity:1" fill="#245155" d="M 259.5,430.5 C 260.338,430.842 260.672,431.508 260.5,432.5C 259.817,434.176 258.483,434.843 256.5,434.5C 256.5,436.5 256.5,438.5 256.5,440.5C 256.806,443.385 256.473,446.052 255.5,448.5C 255.5,443.5 255.5,438.5 255.5,433.5C 256.833,433.5 258.167,433.5 259.5,433.5C 259.5,432.5 259.5,431.5 259.5,430.5 Z"/></g>
</svg>
